<?xml version="1.0" encoding="UTF-8" standalone="no"?>
<!DOCTYPE svg PUBLIC "-//W3C//DTD SVG 1.1//EN"
 "http://www.w3.org/Graphics/SVG/1.1/DTD/svg11.dtd">
<!-- Generated by graphviz version 12.2.1 (20241206.2353)
 -->
<!-- Title: G Pages: 1 -->
<svg width="3678pt" height="4500pt"
 viewBox="0.00 0.00 882.75 1080.00" xmlns="http://www.w3.org/2000/svg" xmlns:xlink="http://www.w3.org/1999/xlink">
<g id="graph0" class="graph" transform="scale(1.59741 1.59741) rotate(0) translate(144 2673.07)">
<title>G</title>
<polygon fill="white" stroke="none" points="-144,144 -144,-2673.07 2158.55,-2673.07 2158.55,144 -144,144"/>
<!-- root&#45;&gt;subtopic_0 -->
<g id="edge1" class="edge">
<title>root&#45;&gt;subtopic_0</title>
<path fill="none" stroke="black" stroke-width="0.5" d="M1096.68,-995.85C1180.47,-1003.14 1282.86,-1012.05 1351.96,-1018.06"/>
</g>
<!-- root&#45;&gt;subtopic_1 -->
<g id="edge7" class="edge">
<title>root&#45;&gt;subtopic_1</title>
<path fill="none" stroke="black" stroke-width="0.5" d="M990.71,-1010.89C1077.12,-1073.57 1286.11,-1225.16 1354.63,-1274.87"/>
</g>
<!-- root&#45;&gt;subtopic_2 -->
<g id="edge15" class="edge">
<title>root&#45;&gt;subtopic_2</title>
<path fill="none" stroke="black" stroke-width="0.5" d="M968.69,-1010.86C1020.28,-1099.76 1181.36,-1377.32 1222.03,-1447.4"/>
</g>
<!-- root&#45;&gt;subtopic_3 -->
<g id="edge19" class="edge">
<title>root&#45;&gt;subtopic_3</title>
<path fill="none" stroke="black" stroke-width="0.5" d="M949.91,-1010.71C940.34,-1104.3 909.13,-1409.68 901.6,-1483.42"/>
</g>
<!-- root&#45;&gt;subtopic_4 -->
<g id="edge30" class="edge">
<title>root&#45;&gt;subtopic_4</title>
<path fill="none" stroke="black" stroke-width="0.5" d="M933.59,-1010.61C877.45,-1090.76 714.19,-1323.84 669.38,-1387.81"/>
</g>
<!-- root&#45;&gt;subtopic_5 -->
<g id="edge33" class="edge">
<title>root&#45;&gt;subtopic_5</title>
<path fill="none" stroke="black" stroke-width="0.5" d="M895.87,-1010.78C801.3,-1056.48 614.46,-1146.76 537.89,-1183.76"/>
</g>
<!-- root&#45;&gt;subtopic_6 -->
<g id="edge39" class="edge">
<title>root&#45;&gt;subtopic_6</title>
<path fill="none" stroke="black" stroke-width="0.5" d="M808.82,-968.7C725.65,-960.25 623.46,-949.87 551,-942.51"/>
</g>
<!-- root&#45;&gt;subtopic_7 -->
<g id="edge44" class="edge">
<title>root&#45;&gt;subtopic_7</title>
<path fill="none" stroke="black" stroke-width="0.5" d="M916.44,-955.86C834.76,-894.01 638.44,-745.36 573.36,-696.08"/>
</g>
<!-- root&#45;&gt;subtopic_8 -->
<g id="edge48" class="edge">
<title>root&#45;&gt;subtopic_8</title>
<path fill="none" stroke="black" stroke-width="0.5" d="M940.44,-955.9C901.28,-868.32 779.99,-597.06 748.91,-527.56"/>
</g>
<!-- root&#45;&gt;subtopic_9 -->
<g id="edge52" class="edge">
<title>root&#45;&gt;subtopic_9</title>
<path fill="none" stroke="black" stroke-width="0.5" d="M954.57,-956.03C960.96,-862.8 981.81,-558.58 986.85,-485.12"/>
</g>
<!-- root&#45;&gt;subtopic_10 -->
<g id="edge56" class="edge">
<title>root&#45;&gt;subtopic_10</title>
<path fill="none" stroke="black" stroke-width="0.5" d="M969.29,-955.89C1017.61,-875.95 1157.29,-644.89 1195.62,-581.49"/>
</g>
<!-- root&#45;&gt;subtopic_11 -->
<g id="edge60" class="edge">
<title>root&#45;&gt;subtopic_11</title>
<path fill="none" stroke="black" stroke-width="0.5" d="M1011.29,-955.85C1108.05,-910.49 1298.35,-821.27 1376.65,-784.57"/>
</g>
<!-- subtopic_0&#45;&gt;subtopic_0_point_0 -->
<g id="edge2" class="edge">
<title>subtopic_0&#45;&gt;subtopic_0_point_0</title>
<path fill="none" stroke="black" stroke-width="0.5" d="M1455.89,-1008.59C1522.07,-966.23 1698.8,-853.12 1764.03,-811.37"/>
</g>
<!-- subtopic_0&#45;&gt;subtopic_0_point_1 -->
<g id="edge3" class="edge">
<title>subtopic_0&#45;&gt;subtopic_0_point_1</title>
<path fill="none" stroke="black" stroke-width="0.5" d="M1508.85,-1010.76C1565.44,-1000.56 1641.93,-986.77 1700.82,-976.16"/>
</g>
<!-- subtopic_0&#45;&gt;subtopic_0_point_2 -->
<g id="edge4" class="edge">
<title>subtopic_0&#45;&gt;subtopic_0_point_2</title>
<path fill="none" stroke="black" stroke-width="0.5" d="M1489.29,-1041.21C1555.17,-1059.47 1661.23,-1088.87 1726.69,-1107.01"/>
</g>
<!-- subtopic_0&#45;&gt;subtopic_0_point_3 -->
<g id="edge5" class="edge">
<title>subtopic_0&#45;&gt;subtopic_0_point_3</title>
<path fill="none" stroke="black" stroke-width="0.5" d="M1452.11,-1041.31C1514.67,-1088.66 1694.92,-1225.07 1756.36,-1271.56"/>
</g>
<!-- subtopic_0&#45;&gt;subtopic_0_point_4 -->
<g id="edge6" class="edge">
<title>subtopic_0&#45;&gt;subtopic_0_point_4</title>
<path fill="none" stroke="black" stroke-width="0.5" d="M1443.31,-1041.1C1497.22,-1108.84 1704.16,-1368.9 1757.4,-1435.8"/>
</g>
<!-- subtopic_1&#45;&gt;subtopic_1_point_0 -->
<g id="edge8" class="edge">
<title>subtopic_1&#45;&gt;subtopic_1_point_0</title>
<path fill="none" stroke="black" stroke-width="0.5" d="M1391,-1274.64C1430.4,-1229.36 1540.74,-1102.59 1579.52,-1058.03"/>
</g>
<!-- subtopic_1&#45;&gt;subtopic_1_point_1 -->
<g id="edge9" class="edge">
<title>subtopic_1&#45;&gt;subtopic_1_point_1</title>
<path fill="none" stroke="black" stroke-width="0.5" d="M1416.5,-1274.62C1453.84,-1259.26 1509.37,-1236.41 1546.42,-1221.16"/>
</g>
<!-- subtopic_1&#45;&gt;subtopic_1_point_2 -->
<g id="edge10" class="edge">
<title>subtopic_1&#45;&gt;subtopic_1_point_2</title>
<path fill="none" stroke="black" stroke-width="0.5" d="M1419.07,-1307.21C1454.31,-1320.77 1504.24,-1339.98 1539.27,-1353.46"/>
</g>
<!-- subtopic_1&#45;&gt;subtopic_1_point_3 -->
<g id="edge11" class="edge">
<title>subtopic_1&#45;&gt;subtopic_1_point_3</title>
<path fill="none" stroke="black" stroke-width="0.5" d="M1390.07,-1307.25C1426.15,-1351.58 1525.72,-1473.89 1561.43,-1517.76"/>
</g>
<!-- subtopic_1&#45;&gt;subtopic_1_point_4 -->
<g id="edge12" class="edge">
<title>subtopic_1&#45;&gt;subtopic_1_point_4</title>
<path fill="none" stroke="black" stroke-width="0.5" d="M1385.79,-1307.37C1421.03,-1371.71 1549.44,-1606.19 1583.89,-1669.11"/>
</g>
<!-- subtopic_1&#45;&gt;subtopic_1_point_5 -->
<g id="edge13" class="edge">
<title>subtopic_1&#45;&gt;subtopic_1_point_5</title>
<path fill="none" stroke="black" stroke-width="0.5" d="M1383.51,-1307.33C1416.53,-1387.97 1561.58,-1742.18 1594.29,-1822.07"/>
</g>
<!-- subtopic_1&#45;&gt;subtopic_1_point_6 -->
<g id="edge14" class="edge">
<title>subtopic_1&#45;&gt;subtopic_1_point_6</title>
<path fill="none" stroke="black" stroke-width="0.5" d="M1382.01,-1307.27C1412.34,-1402.25 1565.82,-1882.98 1595.8,-1976.88"/>
</g>
<!-- subtopic_2&#45;&gt;subtopic_2_point_0 -->
<g id="edge16" class="edge">
<title>subtopic_2&#45;&gt;subtopic_2_point_0</title>
<path fill="none" stroke="black" stroke-width="0.5" d="M1233.77,-1480.02C1237.83,-1508.65 1246.17,-1567.35 1250.2,-1595.71"/>
</g>
<!-- subtopic_2&#45;&gt;subtopic_2_point_1 -->
<g id="edge17" class="edge">
<title>subtopic_2&#45;&gt;subtopic_2_point_1</title>
<path fill="none" stroke="black" stroke-width="0.5" d="M1234.27,-1479.63C1243.64,-1532.54 1273.5,-1701.26 1282.83,-1753.95"/>
</g>
<!-- subtopic_2&#45;&gt;subtopic_2_point_2 -->
<g id="edge18" class="edge">
<title>subtopic_2&#45;&gt;subtopic_2_point_2</title>
<path fill="none" stroke="black" stroke-width="0.5" d="M1232.51,-1479.95C1237.2,-1551.6 1255.91,-1837.28 1260.51,-1907.58"/>
</g>
<!-- subtopic_3&#45;&gt;subtopic_3_point_0 -->
<g id="edge20" class="edge">
<title>subtopic_3&#45;&gt;subtopic_3_point_0</title>
<path fill="none" stroke="black" stroke-width="0.5" d="M901.5,-1483.27C907.54,-1419.62 929.53,-1188.04 935.52,-1125.03"/>
</g>
<!-- subtopic_3&#45;&gt;subtopic_3_point_1 -->
<g id="edge21" class="edge">
<title>subtopic_3&#45;&gt;subtopic_3_point_1</title>
<path fill="none" stroke="black" stroke-width="0.5" d="M902.81,-1483.37C910.43,-1440.28 931.16,-1323.06 938.74,-1280.19"/>
</g>
<!-- subtopic_3&#45;&gt;subtopic_3_point_2 -->
<g id="edge22" class="edge">
<title>subtopic_3&#45;&gt;subtopic_3_point_2</title>
<path fill="none" stroke="black" stroke-width="0.5" d="M906.28,-1483.25C911.94,-1468.7 920.18,-1447.51 925.8,-1433.05"/>
</g>
<!-- subtopic_3&#45;&gt;subtopic_3_point_3 -->
<g id="edge23" class="edge">
<title>subtopic_3&#45;&gt;subtopic_3_point_3</title>
<path fill="none" stroke="black" stroke-width="0.5" d="M906.62,-1515.85C912.57,-1530.41 921.25,-1551.6 927.16,-1566.06"/>
</g>
<!-- subtopic_3&#45;&gt;subtopic_3_point_4 -->
<g id="edge24" class="edge">
<title>subtopic_3&#45;&gt;subtopic_3_point_4</title>
<path fill="none" stroke="black" stroke-width="0.5" d="M899.36,-1515.96C897.81,-1559 893.65,-1674.78 892.12,-1717.1"/>
</g>
<!-- subtopic_3&#45;&gt;subtopic_3_point_5 -->
<g id="edge25" class="edge">
<title>subtopic_3&#45;&gt;subtopic_3_point_5</title>
<path fill="none" stroke="black" stroke-width="0.5" d="M900.9,-1515.85C904.63,-1579.59 918.19,-1811.53 921.89,-1874.63"/>
</g>
<!-- subtopic_3&#45;&gt;subtopic_3_point_6 -->
<g id="edge26" class="edge">
<title>subtopic_3&#45;&gt;subtopic_3_point_6</title>
<path fill="none" stroke="black" stroke-width="0.5" d="M900.94,-1515.9C905.79,-1596.43 927.12,-1950.13 931.94,-2029.91"/>
</g>
<!-- subtopic_3&#45;&gt;subtopic_3_point_7 -->
<g id="edge27" class="edge">
<title>subtopic_3&#45;&gt;subtopic_3_point_7</title>
<path fill="none" stroke="black" stroke-width="0.5" d="M900.79,-1515.87C905.65,-1610.9 930.28,-2091.85 935.1,-2185.8"/>
</g>
<!-- subtopic_3&#45;&gt;subtopic_3_point_8 -->
<g id="edge28" class="edge">
<title>subtopic_3&#45;&gt;subtopic_3_point_8</title>
<path fill="none" stroke="black" stroke-width="0.5" d="M900.67,-1515.92C905.4,-1624.09 932.13,-2235 936.79,-2341.55"/>
</g>
<!-- subtopic_3&#45;&gt;subtopic_3_point_9 -->
<g id="edge29" class="edge">
<title>subtopic_3&#45;&gt;subtopic_3_point_9</title>
<path fill="none" stroke="black" stroke-width="0.5" d="M900.57,-1515.88C905.1,-1635.8 933.23,-2378.92 937.7,-2497.16"/>
</g>
<!-- subtopic_4&#45;&gt;subtopic_4_point_0 -->
<g id="edge31" class="edge">
<title>subtopic_4&#45;&gt;subtopic_4_point_0</title>
<path fill="none" stroke="black" stroke-width="0.5" d="M647.45,-1420.57C622.95,-1458.99 561.97,-1554.57 537.78,-1592.5"/>
</g>
<!-- subtopic_4&#45;&gt;subtopic_4_point_1 -->
<g id="edge32" class="edge">
<title>subtopic_4&#45;&gt;subtopic_4_point_1</title>
<path fill="none" stroke="black" stroke-width="0.5" d="M652.33,-1420.44C631.51,-1481.16 558.35,-1694.51 537.64,-1754.92"/>
</g>
<!-- subtopic_5&#45;&gt;subtopic_5_point_0 -->
<g id="edge34" class="edge">
<title>subtopic_5&#45;&gt;subtopic_5_point_0</title>
<path fill="none" stroke="black" stroke-width="0.5" d="M471.83,-1183.86C424.47,-1159.83 336.49,-1115.18 289.58,-1091.37"/>
</g>
<!-- subtopic_5&#45;&gt;subtopic_5_point_1 -->
<g id="edge35" class="edge">
<title>subtopic_5&#45;&gt;subtopic_5_point_1</title>
<path fill="none" stroke="black" stroke-width="0.5" d="M452.39,-1208.22C414.56,-1214.14 363.39,-1222.15 325.6,-1228.06"/>
</g>
<!-- subtopic_5&#45;&gt;subtopic_5_point_2 -->
<g id="edge36" class="edge">
<title>subtopic_5&#45;&gt;subtopic_5_point_2</title>
<path fill="none" stroke="black" stroke-width="0.5" d="M479.9,-1216.49C429.18,-1250.92 311.81,-1330.59 261.64,-1364.65"/>
</g>
<!-- subtopic_5&#45;&gt;subtopic_5_point_3 -->
<g id="edge37" class="edge">
<title>subtopic_5&#45;&gt;subtopic_5_point_3</title>
<path fill="none" stroke="black" stroke-width="0.5" d="M490.54,-1216.29C443.45,-1272.94 285.99,-1462.32 239.11,-1518.71"/>
</g>
<!-- subtopic_5&#45;&gt;subtopic_5_point_4 -->
<g id="edge38" class="edge">
<title>subtopic_5&#45;&gt;subtopic_5_point_4</title>
<path fill="none" stroke="black" stroke-width="0.5" d="M494.51,-1216.47C451.23,-1291.25 272.09,-1600.75 229.34,-1674.61"/>
</g>
<!-- subtopic_6&#45;&gt;subtopic_6_point_0 -->
<g id="edge40" class="edge">
<title>subtopic_6&#45;&gt;subtopic_6_point_0</title>
<path fill="none" stroke="black" stroke-width="0.5" d="M427.22,-916.84C356.02,-880 183.36,-790.65 112.76,-754.11"/>
</g>
<!-- subtopic_6&#45;&gt;subtopic_6_point_1 -->
<g id="edge41" class="edge">
<title>subtopic_6&#45;&gt;subtopic_6_point_1</title>
<path fill="none" stroke="black" stroke-width="0.5" d="M366.56,-920.27C311.15,-912.54 241.58,-902.83 189.91,-895.62"/>
</g>
<!-- subtopic_6&#45;&gt;subtopic_6_point_2 -->
<g id="edge42" class="edge">
<title>subtopic_6&#45;&gt;subtopic_6_point_2</title>
<path fill="none" stroke="black" stroke-width="0.5" d="M398.75,-949.5C330.99,-968.01 221.39,-997.95 154.22,-1016.3"/>
</g>
<!-- subtopic_6&#45;&gt;subtopic_6_point_3 -->
<g id="edge43" class="edge">
<title>subtopic_6&#45;&gt;subtopic_6_point_3</title>
<path fill="none" stroke="black" stroke-width="0.5" d="M434.54,-949.53C366.98,-995.41 176.69,-1124.66 109.79,-1170.1"/>
</g>
<!-- subtopic_7&#45;&gt;subtopic_7_point_0 -->
<g id="edge45" class="edge">
<title>subtopic_7&#45;&gt;subtopic_7_point_0</title>
<path fill="none" stroke="black" stroke-width="0.5" d="M534.51,-663.52C481.03,-613.4 320.17,-462.64 267.63,-413.41"/>
</g>
<!-- subtopic_7&#45;&gt;subtopic_7_point_1 -->
<g id="edge46" class="edge">
<title>subtopic_7&#45;&gt;subtopic_7_point_1</title>
<path fill="none" stroke="black" stroke-width="0.5" d="M514.34,-663.53C457.83,-638.94 351.79,-592.8 295.91,-568.49"/>
</g>
<!-- subtopic_7&#45;&gt;subtopic_7_point_2 -->
<g id="edge47" class="edge">
<title>subtopic_7&#45;&gt;subtopic_7_point_2</title>
<path fill="none" stroke="black" stroke-width="0.5" d="M429.23,-690.1C412.22,-691.51 395.05,-692.94 378.9,-694.28"/>
</g>
<!-- subtopic_8&#45;&gt;subtopic_8_point_0 -->
<g id="edge49" class="edge">
<title>subtopic_8&#45;&gt;subtopic_8_point_0</title>
<path fill="none" stroke="black" stroke-width="0.5" d="M734.41,-494.96C705.35,-429.29 596.78,-183.93 568.05,-118.99"/>
</g>
<!-- subtopic_8&#45;&gt;subtopic_8_point_1 -->
<g id="edge50" class="edge">
<title>subtopic_8&#45;&gt;subtopic_8_point_1</title>
<path fill="none" stroke="black" stroke-width="0.5" d="M730.07,-495.03C697.54,-449.41 605.39,-320.14 572.98,-274.68"/>
</g>
<!-- subtopic_8&#45;&gt;subtopic_8_point_2 -->
<g id="edge51" class="edge">
<title>subtopic_8&#45;&gt;subtopic_8_point_2</title>
<path fill="none" stroke="black" stroke-width="0.5" d="M711.92,-494.92C678.99,-476.85 626.18,-447.87 593.45,-429.91"/>
</g>
<!-- subtopic_9&#45;&gt;subtopic_9_point_0 -->
<g id="edge53" class="edge">
<title>subtopic_9&#45;&gt;subtopic_9_point_0</title>
<path fill="none" stroke="black" stroke-width="0.5" d="M991.93,-452.66C1009.12,-381.76 1077.01,-101.87 1093.96,-31.95"/>
</g>
<!-- subtopic_9&#45;&gt;subtopic_9_point_1 -->
<g id="edge54" class="edge">
<title>subtopic_9&#45;&gt;subtopic_9_point_1</title>
<path fill="none" stroke="black" stroke-width="0.5" d="M993.82,-452.64C1012.44,-400.54 1070.11,-239.25 1088.53,-187.73"/>
</g>
<!-- subtopic_9&#45;&gt;subtopic_9_point_2 -->
<g id="edge55" class="edge">
<title>subtopic_9&#45;&gt;subtopic_9_point_2</title>
<path fill="none" stroke="black" stroke-width="0.5" d="M999.16,-452.78C1018.1,-425.27 1056.22,-369.94 1074.87,-342.86"/>
</g>
<!-- subtopic_10&#45;&gt;subtopic_10_point_0 -->
<g id="edge57" class="edge">
<title>subtopic_10&#45;&gt;subtopic_10_point_0</title>
<path fill="none" stroke="black" stroke-width="0.5" d="M1218.35,-548.84C1266.7,-487.4 1436.88,-271.18 1484.42,-210.77"/>
</g>
<!-- subtopic_10&#45;&gt;subtopic_10_point_1 -->
<g id="edge58" class="edge">
<title>subtopic_10&#45;&gt;subtopic_10_point_1</title>
<path fill="none" stroke="black" stroke-width="0.5" d="M1226.88,-548.98C1279.96,-508.75 1417.06,-404.82 1469.58,-365.01"/>
</g>
<!-- subtopic_10&#45;&gt;subtopic_10_point_2 -->
<g id="edge59" class="edge">
<title>subtopic_10&#45;&gt;subtopic_10_point_2</title>
<path fill="none" stroke="black" stroke-width="0.5" d="M1271.6,-548.83C1314.13,-538.29 1369.12,-524.66 1411.33,-514.2"/>
</g>
<!-- subtopic_11&#45;&gt;subtopic_11_point_0 -->
<g id="edge61" class="edge">
<title>subtopic_11&#45;&gt;subtopic_11_point_0</title>
<path fill="none" stroke="black" stroke-width="0.5" d="M1442.94,-751.91C1519.92,-711.95 1717.39,-609.43 1793.73,-569.8"/>
</g>
<!-- subtopic_11&#45;&gt;subtopic_11_point_1 -->
<g id="edge62" class="edge">
<title>subtopic_11&#45;&gt;subtopic_11_point_1</title>
<path fill="none" stroke="black" stroke-width="0.5" d="M1453.6,-760.01C1508.37,-749.34 1605.37,-730.44 1674.99,-716.87"/>
</g>
<!-- subtopic_11&#45;&gt;subtopic_11_point_2 -->
<g id="edge63" class="edge">
<title>subtopic_11&#45;&gt;subtopic_11_point_2</title>
<path fill="none" stroke="black" stroke-width="0.5" d="M1453.58,-783.43C1510.49,-804.07 1611.62,-840.74 1669.6,-861.76"/>
</g>
<!-- root -->
<g id="node1" class="node">
<title>root</title>
<path fill="white" stroke="white" stroke-width="0.5" d="M1084.7,-1010.92C1084.7,-1010.92 820.7,-1010.92 820.7,-1010.92 814.7,-1010.92 808.7,-1004.92 808.7,-998.92 808.7,-998.92 808.7,-967.72 808.7,-967.72 808.7,-961.72 814.7,-955.72 820.7,-955.72 820.7,-955.72 1084.7,-955.72 1084.7,-955.72 1090.7,-955.72 1096.7,-961.72 1096.7,-967.72 1096.7,-967.72 1096.7,-998.92 1096.7,-998.92 1096.7,-1004.92 1090.7,-1010.92 1084.7,-1010.92"/>
<text text-anchor="middle" x="952.7" y="-978.87" font-family="Arial-Bold" font-size="11.00">CELL STRUCTURE AND FUNCTION</text>
</g>
<!-- subtopic_0 -->
<g id="node2" class="node">
<title>subtopic_0</title>
<polygon fill="white" stroke="white" stroke-width="0" points="1509.09,-1041.32 1351.74,-1041.32 1351.74,-1008.47 1509.09,-1008.47 1509.09,-1041.32"/>
<text text-anchor="middle" x="1430.42" y="-1021.02" font-family="Arial-Bold" font-size="10.00">HISTORY OF CELL BIOLOGY</text>
</g>
<!-- subtopic_0_point_0 -->
<g id="node3" class="node">
<title>subtopic_0_point_0</title>
<polygon fill="white" stroke="white" stroke-width="0" points="1900.72,-811.65 1676.62,-811.65 1676.62,-779.55 1900.72,-779.55 1900.72,-811.65"/>
<text text-anchor="middle" x="1788.67" y="-792.3" font-family="Arial" font-size="9.00">Robert Hooke&#39;s observation of cells in cork (1665)</text>
</g>
<!-- subtopic_0_point_1 -->
<g id="node4" class="node">
<title>subtopic_0_point_1</title>
<polygon fill="white" stroke="white" stroke-width="0" points="1918,-976.17 1661.65,-976.17 1661.65,-944.07 1918,-944.07 1918,-976.17"/>
<text text-anchor="middle" x="1789.83" y="-956.82" font-family="Arial" font-size="9.00">Anton van Leeuwenhoek&#39;s observation of live cells (1674)</text>
</g>
<!-- subtopic_0_point_2 -->
<g id="node5" class="node">
<title>subtopic_0_point_2</title>
<polygon fill="white" stroke="white" stroke-width="0" points="1891.32,-1139.09 1677.72,-1139.09 1677.72,-1106.99 1891.32,-1106.99 1891.32,-1139.09"/>
<text text-anchor="middle" x="1784.52" y="-1119.74" font-family="Arial" font-size="9.00">Robert Brown&#39;s discovery of the nucleus (1831)</text>
</g>
<!-- subtopic_0_point_3 -->
<g id="node6" class="node">
<title>subtopic_0_point_3</title>
<polygon fill="white" stroke="white" stroke-width="0" points="1913.96,-1303.36 1640.36,-1303.36 1640.36,-1271.26 1913.96,-1271.26 1913.96,-1303.36"/>
<text text-anchor="middle" x="1777.16" y="-1284.01" font-family="Arial" font-size="9.00">Schleiden and Schwann&#39;s formulation of the cell theory (1838)</text>
</g>
<!-- subtopic_0_point_4 -->
<g id="node7" class="node">
<title>subtopic_0_point_4</title>
<polygon fill="white" stroke="white" stroke-width="0" points="1867,-1467.62 1672.9,-1467.62 1672.9,-1435.52 1867,-1435.52 1867,-1467.62"/>
<text text-anchor="middle" x="1769.95" y="-1448.27" font-family="Arial" font-size="9.00">Virchow&#39;s addition to the cell theory (1858)</text>
</g>
<!-- subtopic_1 -->
<g id="node8" class="node">
<title>subtopic_1</title>
<polygon fill="white" stroke="white" stroke-width="0" points="1464.85,-1307.38 1288.75,-1307.38 1288.75,-1274.53 1464.85,-1274.53 1464.85,-1307.38"/>
<text text-anchor="middle" x="1376.8" y="-1287.08" font-family="Arial-Bold" font-size="10.00">TECHNIQUES IN CELL BIOLOGY</text>
</g>
<!-- subtopic_1_point_0 -->
<g id="node9" class="node">
<title>subtopic_1_point_0</title>
<polygon fill="white" stroke="white" stroke-width="0" points="1627.27,-1058.34 1559.17,-1058.34 1559.17,-1026.24 1627.27,-1026.24 1627.27,-1058.34"/>
<text text-anchor="middle" x="1593.22" y="-1038.99" font-family="Arial" font-size="9.00">Cell culture</text>
</g>
<!-- subtopic_1_point_1 -->
<g id="node10" class="node">
<title>subtopic_1_point_1</title>
<polygon fill="white" stroke="white" stroke-width="0" points="1648.19,-1221.23 1522.34,-1221.23 1522.34,-1189.13 1648.19,-1189.13 1648.19,-1221.23"/>
<text text-anchor="middle" x="1585.27" y="-1201.88" font-family="Arial" font-size="9.00">Fluorescence microscopy</text>
</g>
<!-- subtopic_1_point_2 -->
<g id="node11" class="node">
<title>subtopic_1_point_2</title>
<polygon fill="white" stroke="white" stroke-width="0" points="1646.71,-1385.48 1514.86,-1385.48 1514.86,-1353.38 1646.71,-1353.38 1646.71,-1385.48"/>
<text text-anchor="middle" x="1580.79" y="-1366.13" font-family="Arial" font-size="9.00">Phase&#45;contrast microscopy</text>
</g>
<!-- subtopic_1_point_3 -->
<g id="node12" class="node">
<title>subtopic_1_point_3</title>
<polygon fill="white" stroke="white" stroke-width="0" points="1627.93,-1549.72 1520.83,-1549.72 1520.83,-1517.62 1627.93,-1517.62 1627.93,-1549.72"/>
<text text-anchor="middle" x="1574.38" y="-1530.37" font-family="Arial" font-size="9.00">Confocal microscopy</text>
</g>
<!-- subtopic_1_point_4 -->
<g id="node13" class="node">
<title>subtopic_1_point_4</title>
<polygon fill="white" stroke="white" stroke-width="0" points="1672.62,-1700.78 1512.27,-1700.78 1512.27,-1668.68 1672.62,-1668.68 1672.62,-1700.78"/>
<text text-anchor="middle" x="1592.45" y="-1681.43" font-family="Arial" font-size="9.00">Transmission electron microscopy</text>
</g>
<!-- subtopic_1_point_5 -->
<g id="node14" class="node">
<title>subtopic_1_point_5</title>
<polygon fill="white" stroke="white" stroke-width="0" points="1632.29,-1854.17 1569.44,-1854.17 1569.44,-1822.07 1632.29,-1822.07 1632.29,-1854.17"/>
<text text-anchor="middle" x="1600.86" y="-1834.82" font-family="Arial" font-size="9.00">Cytometry</text>
</g>
<!-- subtopic_1_point_6 -->
<g id="node15" class="node">
<title>subtopic_1_point_6</title>
<polygon fill="white" stroke="white" stroke-width="0" points="1646.18,-2008.85 1555.58,-2008.85 1555.58,-1976.75 1646.18,-1976.75 1646.18,-2008.85"/>
<text text-anchor="middle" x="1600.88" y="-1989.5" font-family="Arial" font-size="9.00">Cell fractionation</text>
</g>
<!-- subtopic_2 -->
<g id="node16" class="node">
<title>subtopic_2</title>
<polygon fill="white" stroke="white" stroke-width="0" points="1358.48,-1480.02 1104.38,-1480.02 1104.38,-1447.17 1358.48,-1447.17 1358.48,-1480.02"/>
<text text-anchor="middle" x="1231.43" y="-1459.72" font-family="Arial-Bold" font-size="10.00">CELL TYPES: PROKARYOTIC AND EUKARYOTIC</text>
</g>
<!-- subtopic_2_point_0 -->
<g id="node17" class="node">
<title>subtopic_2_point_0</title>
<polygon fill="white" stroke="white" stroke-width="0" points="1428.28,-1627.81 1076.68,-1627.81 1076.68,-1595.71 1428.28,-1595.71 1428.28,-1627.81"/>
<text text-anchor="middle" x="1252.48" y="-1608.46" font-family="Arial" font-size="9.00">Prokaryotic cells: lack a nucleus and membrane&#45;bound organelles (e.g., bacteria)</text>
</g>
<!-- subtopic_2_point_1 -->
<g id="node18" class="node">
<title>subtopic_2_point_1</title>
<polygon fill="white" stroke="white" stroke-width="0" points="1512.06,-1785.87 1059.21,-1785.87 1059.21,-1753.77 1512.06,-1753.77 1512.06,-1785.87"/>
<text text-anchor="middle" x="1285.64" y="-1766.52" font-family="Arial" font-size="9.00">Eukaryotic cells: possess a nucleus and membrane&#45;bound organelles (e.g., plants, animals, fungi, protists)</text>
</g>
<!-- subtopic_2_point_2 -->
<g id="node19" class="node">
<title>subtopic_2_point_2</title>
<polygon fill="white" stroke="white" stroke-width="0" points="1373.59,-1939.32 1149.49,-1939.32 1149.49,-1907.22 1373.59,-1907.22 1373.59,-1939.32"/>
<text text-anchor="middle" x="1261.54" y="-1919.97" font-family="Arial" font-size="9.00">Differences in size, structure, and genetic material</text>
</g>
<!-- subtopic_3 -->
<g id="node20" class="node">
<title>subtopic_3</title>
<polygon fill="white" stroke="white" stroke-width="0" points="1042,-1515.97 757.9,-1515.97 757.9,-1483.12 1042,-1483.12 1042,-1515.97"/>
<text text-anchor="middle" x="899.95" y="-1495.67" font-family="Arial-Bold" font-size="10.00">STRUCTURE AND FUNCTION OF EUKARYOTIC CELLS</text>
</g>
<!-- subtopic_3_point_0 -->
<g id="node21" class="node">
<title>subtopic_3_point_0</title>
<polygon fill="white" stroke="white" stroke-width="0" points="1010.83,-1125.16 863.23,-1125.16 863.23,-1093.06 1010.83,-1093.06 1010.83,-1125.16"/>
<text text-anchor="middle" x="937.03" y="-1105.81" font-family="Arial" font-size="9.00">Nucleus: genetic control center</text>
</g>
<!-- subtopic_3_point_1 -->
<g id="node22" class="node">
<title>subtopic_3_point_1</title>
<polygon fill="white" stroke="white" stroke-width="0" points="1006.36,-1280.26 876.76,-1280.26 876.76,-1248.16 1006.36,-1248.16 1006.36,-1280.26"/>
<text text-anchor="middle" x="941.56" y="-1260.91" font-family="Arial" font-size="9.00">Nucleolus: rRNA synthesis</text>
</g>
<!-- subtopic_3_point_2 -->
<g id="node23" class="node">
<title>subtopic_3_point_2</title>
<polygon fill="white" stroke="white" stroke-width="0" points="1054.18,-1433.12 809.83,-1433.12 809.83,-1401.02 1054.18,-1401.02 1054.18,-1433.12"/>
<text text-anchor="middle" x="932.01" y="-1413.77" font-family="Arial" font-size="9.00">Endoplasmic reticulum: protein synthesis and transport</text>
</g>
<!-- subtopic_3_point_3 -->
<g id="node24" class="node">
<title>subtopic_3_point_3</title>
<polygon fill="white" stroke="white" stroke-width="0" points="1022.88,-1598.1 844.53,-1598.1 844.53,-1566 1022.88,-1566 1022.88,-1598.1"/>
<text text-anchor="middle" x="933.7" y="-1578.75" font-family="Arial" font-size="9.00">Mitochondria: energy production (ATP)</text>
</g>
<!-- subtopic_3_point_4 -->
<g id="node25" class="node">
<title>subtopic_3_point_4</title>
<polygon fill="white" stroke="white" stroke-width="0" points="1008.86,-1748.93 774.26,-1748.93 774.26,-1716.83 1008.86,-1716.83 1008.86,-1748.93"/>
<text text-anchor="middle" x="891.56" y="-1729.58" font-family="Arial" font-size="9.00">Golgi apparatus: protein modification and packaging</text>
</g>
<!-- subtopic_3_point_5 -->
<g id="node26" class="node">
<title>subtopic_3_point_5</title>
<polygon fill="white" stroke="white" stroke-width="0" points="994.74,-1906.62 850.89,-1906.62 850.89,-1874.52 994.74,-1874.52 994.74,-1906.62"/>
<text text-anchor="middle" x="922.82" y="-1887.27" font-family="Arial" font-size="9.00">Lysosomes: waste breakdown</text>
</g>
<!-- subtopic_3_point_6 -->
<g id="node27" class="node">
<title>subtopic_3_point_6</title>
<polygon fill="white" stroke="white" stroke-width="0" points="1003.7,-2061.99 862.1,-2061.99 862.1,-2029.89 1003.7,-2029.89 1003.7,-2061.99"/>
<text text-anchor="middle" x="932.9" y="-2042.64" font-family="Arial" font-size="9.00">Ribosomes: protein synthesis</text>
</g>
<!-- subtopic_3_point_7 -->
<g id="node28" class="node">
<title>subtopic_3_point_7</title>
<polygon fill="white" stroke="white" stroke-width="0" points="1022.09,-2217.78 849.74,-2217.78 849.74,-2185.68 1022.09,-2185.68 1022.09,-2217.78"/>
<text text-anchor="middle" x="935.91" y="-2198.43" font-family="Arial" font-size="9.00">Cytoskeleton: cell shape and support</text>
</g>
<!-- subtopic_3_point_8 -->
<g id="node29" class="node">
<title>subtopic_3_point_8</title>
<polygon fill="white" stroke="white" stroke-width="0" points="1014.66,-2373.45 860.31,-2373.45 860.31,-2341.35 1014.66,-2341.35 1014.66,-2373.45"/>
<text text-anchor="middle" x="937.48" y="-2354.1" font-family="Arial" font-size="9.00">Cell membrane: selective barrier</text>
</g>
<!-- subtopic_3_point_9 -->
<g id="node30" class="node">
<title>subtopic_3_point_9</title>
<polygon fill="white" stroke="white" stroke-width="0" points="1010.23,-2529.07 866.38,-2529.07 866.38,-2496.97 1010.23,-2496.97 1010.23,-2529.07"/>
<text text-anchor="middle" x="938.3" y="-2509.72" font-family="Arial" font-size="9.00">Centrioles: role in cell division</text>
</g>
<!-- subtopic_4 -->
<g id="node31" class="node">
<title>subtopic_4</title>
<polygon fill="white" stroke="white" stroke-width="0" points="714.44,-1420.64 601.34,-1420.64 601.34,-1387.79 714.44,-1387.79 714.44,-1420.64"/>
<text text-anchor="middle" x="657.89" y="-1400.34" font-family="Arial-Bold" font-size="10.00">CELL METABOLISM</text>
</g>
<!-- subtopic_4_point_0 -->
<g id="node32" class="node">
<title>subtopic_4_point_0</title>
<polygon fill="white" stroke="white" stroke-width="0" points="652.07,-1624.43 403.22,-1624.43 403.22,-1592.33 652.07,-1592.33 652.07,-1624.43"/>
<text text-anchor="middle" x="527.65" y="-1605.08" font-family="Arial" font-size="9.00">Cellular respiration: glucose breakdown to produce ATP</text>
</g>
<!-- subtopic_4_point_1 -->
<g id="node33" class="node">
<title>subtopic_4_point_1</title>
<polygon fill="white" stroke="white" stroke-width="0" points="646.07,-1787.01 418.22,-1787.01 418.22,-1754.91 646.07,-1754.91 646.07,-1787.01"/>
<text text-anchor="middle" x="532.14" y="-1767.66" font-family="Arial" font-size="9.00">Photosynthesis: light energy conversion to glucose</text>
</g>
<!-- subtopic_5 -->
<g id="node34" class="node">
<title>subtopic_5</title>
<polygon fill="white" stroke="white" stroke-width="0" points="555.63,-1216.58 452.28,-1216.58 452.28,-1183.73 555.63,-1183.73 555.63,-1216.58"/>
<text text-anchor="middle" x="503.95" y="-1196.28" font-family="Arial-Bold" font-size="10.00">CELL SIGNALING</text>
</g>
<!-- subtopic_5_point_0 -->
<g id="node35" class="node">
<title>subtopic_5_point_0</title>
<polygon fill="white" stroke="white" stroke-width="0" points="305.03,-1091.51 211.43,-1091.51 211.43,-1059.41 305.03,-1059.41 305.03,-1091.51"/>
<text text-anchor="middle" x="258.23" y="-1072.16" font-family="Arial" font-size="9.00">Direct cell contact</text>
</g>
<!-- subtopic_5_point_1 -->
<g id="node36" class="node">
<title>subtopic_5_point_1</title>
<polygon fill="white" stroke="white" stroke-width="0" points="325.88,-1252.15 222.53,-1252.15 222.53,-1220.05 325.88,-1220.05 325.88,-1252.15"/>
<text text-anchor="middle" x="274.21" y="-1232.8" font-family="Arial" font-size="9.00">Endocrine signaling</text>
</g>
<!-- subtopic_5_point_2 -->
<g id="node37" class="node">
<title>subtopic_5_point_2</title>
<polygon fill="white" stroke="white" stroke-width="0" points="288.77,-1396.6 187.67,-1396.6 187.67,-1364.5 288.77,-1364.5 288.77,-1396.6"/>
<text text-anchor="middle" x="238.22" y="-1377.25" font-family="Arial" font-size="9.00">Paracrine signaling</text>
</g>
<!-- subtopic_5_point_3 -->
<g id="node38" class="node">
<title>subtopic_5_point_3</title>
<polygon fill="white" stroke="white" stroke-width="0" points="276,-1550.73 175.65,-1550.73 175.65,-1518.63 276,-1518.63 276,-1550.73"/>
<text text-anchor="middle" x="225.83" y="-1531.38" font-family="Arial" font-size="9.00">Autocrine signaling</text>
</g>
<!-- subtopic_5_point_4 -->
<g id="node39" class="node">
<title>subtopic_5_point_4</title>
<polygon fill="white" stroke="white" stroke-width="0" points="367.83,-1706.54 72.48,-1706.54 72.48,-1674.44 367.83,-1674.44 367.83,-1706.54"/>
<text text-anchor="middle" x="220.15" y="-1687.19" font-family="Arial" font-size="9.00">Types of receptors: ion channels, GPCRs, receptor tyrosine kinases</text>
</g>
<!-- subtopic_6 -->
<g id="node40" class="node">
<title>subtopic_6</title>
<polygon fill="white" stroke="white" stroke-width="0" points="551.24,-949.55 366.14,-949.55 366.14,-916.7 551.24,-916.7 551.24,-949.55"/>
<text text-anchor="middle" x="458.69" y="-929.25" font-family="Arial-Bold" font-size="10.00">CELL CYCLE AND DEVELOPMENT</text>
</g>
<!-- subtopic_6_point_0 -->
<g id="node41" class="node">
<title>subtopic_6_point_0</title>
<polygon fill="white" stroke="white" stroke-width="0" points="156.45,-754.19 7.35,-754.19 7.35,-722.09 156.45,-722.09 156.45,-754.19"/>
<text text-anchor="middle" x="81.9" y="-734.84" font-family="Arial" font-size="9.00">Cell cycle phases: G1, S, G2, M</text>
</g>
<!-- subtopic_6_point_1 -->
<g id="node42" class="node">
<title>subtopic_6_point_1</title>
<polygon fill="white" stroke="white" stroke-width="0" points="190,-901.43 43.15,-901.43 43.15,-869.33 190,-869.33 190,-901.43"/>
<text text-anchor="middle" x="116.58" y="-882.08" font-family="Arial" font-size="9.00">Mitosis: process of cell division</text>
</g>
<!-- subtopic_6_point_2 -->
<g id="node43" class="node">
<title>subtopic_6_point_2</title>
<polygon fill="white" stroke="white" stroke-width="0" points="161.25,-1048.33 30.15,-1048.33 30.15,-1016.23 161.25,-1016.23 161.25,-1048.33"/>
<text text-anchor="middle" x="95.7" y="-1028.98" font-family="Arial" font-size="9.00">Regulation of the cell cycle</text>
</g>
<!-- subtopic_6_point_3 -->
<g id="node44" class="node">
<title>subtopic_6_point_3</title>
<polygon fill="white" stroke="white" stroke-width="0" points="172.35,-1202.19 0,-1202.19 0,-1170.09 172.35,-1170.09 172.35,-1202.19"/>
<text text-anchor="middle" x="86.17" y="-1182.84" font-family="Arial" font-size="9.00">Cell differentiation and specialization</text>
</g>
<!-- subtopic_7 -->
<g id="node45" class="node">
<title>subtopic_7</title>
<polygon fill="white" stroke="white" stroke-width="0" points="674.93,-696.34 429.08,-696.34 429.08,-663.49 674.93,-663.49 674.93,-696.34"/>
<text text-anchor="middle" x="552.01" y="-676.04" font-family="Arial-Bold" font-size="10.00">CELL MORTALITY AND LINEAGE IMMORTALITY</text>
</g>
<!-- subtopic_7_point_0 -->
<g id="node46" class="node">
<title>subtopic_7_point_0</title>
<polygon fill="white" stroke="white" stroke-width="0" points="331.39,-413.72 170.29,-413.72 170.29,-381.62 331.39,-381.62 331.39,-413.72"/>
<text text-anchor="middle" x="250.84" y="-394.37" font-family="Arial" font-size="9.00">Apoptosis: programmed cell death</text>
</g>
<!-- subtopic_7_point_1 -->
<g id="node47" class="node">
<title>subtopic_7_point_1</title>
<polygon fill="white" stroke="white" stroke-width="0" points="332.36,-568.62 186.26,-568.62 186.26,-536.52 332.36,-536.52 332.36,-568.62"/>
<text text-anchor="middle" x="259.31" y="-549.27" font-family="Arial" font-size="9.00">Necrosis: accidental cell death</text>
</g>
<!-- subtopic_7_point_2 -->
<g id="node48" class="node">
<title>subtopic_7_point_2</title>
<polygon fill="white" stroke="white" stroke-width="0" points="378.96,-717.48 206.61,-717.48 206.61,-685.38 378.96,-685.38 378.96,-717.48"/>
<text text-anchor="middle" x="292.78" y="-698.13" font-family="Arial" font-size="9.00">Maintenance of cell division potential</text>
</g>
<!-- subtopic_8 -->
<g id="node49" class="node">
<title>subtopic_8</title>
<polygon fill="white" stroke="white" stroke-width="0" points="845.03,-527.64 638.18,-527.64 638.18,-494.79 845.03,-494.79 845.03,-527.64"/>
<text text-anchor="middle" x="741.6" y="-507.34" font-family="Arial-Bold" font-size="10.00">PATHOLOGY AT THE CELLULAR LEVEL</text>
</g>
<!-- subtopic_8_point_0 -->
<g id="node50" class="node">
<title>subtopic_8_point_0</title>
<polygon fill="white" stroke="white" stroke-width="0" points="601.46,-119.18 520.61,-119.18 520.61,-87.08 601.46,-87.08 601.46,-119.18"/>
<text text-anchor="middle" x="561.03" y="-99.83" font-family="Arial" font-size="9.00">Cytopathology</text>
</g>
<!-- subtopic_8_point_1 -->
<g id="node51" class="node">
<title>subtopic_8_point_1</title>
<polygon fill="white" stroke="white" stroke-width="0" points="603.09,-274.68 519.99,-274.68 519.99,-242.58 603.09,-242.58 603.09,-274.68"/>
<text text-anchor="middle" x="561.54" y="-255.33" font-family="Arial" font-size="9.00">Histopathology</text>
</g>
<!-- subtopic_8_point_2 -->
<g id="node52" class="node">
<title>subtopic_8_point_2</title>
<polygon fill="white" stroke="white" stroke-width="0" points="656.43,-429.94 472.08,-429.94 472.08,-397.84 656.43,-397.84 656.43,-429.94"/>
<text text-anchor="middle" x="564.26" y="-410.59" font-family="Arial" font-size="9.00">Examples: Pap smear, cancer diagnosis</text>
</g>
<!-- subtopic_9 -->
<g id="node53" class="node">
<title>subtopic_9</title>
<polygon fill="white" stroke="white" stroke-width="0" points="1074.5,-485.48 901.4,-485.48 901.4,-452.63 1074.5,-452.63 1074.5,-485.48"/>
<text text-anchor="middle" x="987.95" y="-465.18" font-family="Arial-Bold" font-size="10.00">DNA DAMAGE REPAIR SYSTEM</text>
</g>
<!-- subtopic_9_point_0 -->
<g id="node54" class="node">
<title>subtopic_9_point_0</title>
<polygon fill="white" stroke="white" stroke-width="0" points="1153.99,-32.1 1041.64,-32.1 1041.64,0 1153.99,0 1153.99,-32.1"/>
<text text-anchor="middle" x="1097.82" y="-12.75" font-family="Arial" font-size="9.00">Cell cycle checkpoints</text>
</g>
<!-- subtopic_9_point_1 -->
<g id="node55" class="node">
<title>subtopic_9_point_1</title>
<polygon fill="white" stroke="white" stroke-width="0" points="1148.17,-187.79 1040.32,-187.79 1040.32,-155.69 1148.17,-155.69 1148.17,-187.79"/>
<text text-anchor="middle" x="1094.25" y="-168.44" font-family="Arial" font-size="9.00">DNA repair pathways</text>
</g>
<!-- subtopic_9_point_2 -->
<g id="node56" class="node">
<title>subtopic_9_point_2</title>
<polygon fill="white" stroke="white" stroke-width="0" points="1186.07,-343.26 985.22,-343.26 985.22,-311.16 1186.07,-311.16 1186.07,-343.26"/>
<text text-anchor="middle" x="1085.65" y="-323.91" font-family="Arial" font-size="9.00">Importance for maintaining genome integrity</text>
</g>
<!-- subtopic_10 -->
<g id="node57" class="node">
<title>subtopic_10</title>
<polygon fill="white" stroke="white" stroke-width="0" points="1317.5,-581.65 1093.4,-581.65 1093.4,-548.8 1317.5,-548.8 1317.5,-581.65"/>
<text text-anchor="middle" x="1205.45" y="-561.35" font-family="Arial-Bold" font-size="10.00">MITOCHONDRIAL MEMBRANE DYNAMICS</text>
</g>
<!-- subtopic_10_point_0 -->
<g id="node58" class="node">
<title>subtopic_10_point_0</title>
<polygon fill="white" stroke="white" stroke-width="0" points="1572.14,-211.03 1421.54,-211.03 1421.54,-178.93 1572.14,-178.93 1572.14,-211.03"/>
<text text-anchor="middle" x="1496.84" y="-191.68" font-family="Arial" font-size="9.00">Mitochondrial fusion and fission</text>
</g>
<!-- subtopic_10_point_1 -->
<g id="node59" class="node">
<title>subtopic_10_point_1</title>
<polygon fill="white" stroke="white" stroke-width="0" points="1591.28,-365.22 1389.68,-365.22 1389.68,-333.12 1591.28,-333.12 1591.28,-365.22"/>
<text text-anchor="middle" x="1490.48" y="-345.87" font-family="Arial" font-size="9.00">Role in energy production and cell signaling</text>
</g>
<!-- subtopic_10_point_2 -->
<g id="node60" class="node">
<title>subtopic_10_point_2</title>
<polygon fill="white" stroke="white" stroke-width="0" points="1584.16,-514.26 1367.56,-514.26 1367.56,-482.16 1584.16,-482.16 1584.16,-514.26"/>
<text text-anchor="middle" x="1475.86" y="-494.91" font-family="Arial" font-size="9.00">Importance for maintaining cellular homeostasis</text>
</g>
<!-- subtopic_11 -->
<g id="node61" class="node">
<title>subtopic_11</title>
<polygon fill="white" stroke="white" stroke-width="0" points="1453.87,-784.62 1369.27,-784.62 1369.27,-751.77 1453.87,-751.77 1453.87,-784.62"/>
<text text-anchor="middle" x="1411.57" y="-764.32" font-family="Arial-Bold" font-size="10.00">AUTOPHAGY</text>
</g>
<!-- subtopic_11_point_0 -->
<g id="node62" class="node">
<title>subtopic_11_point_0</title>
<polygon fill="white" stroke="white" stroke-width="0" points="2014.55,-569.88 1634.45,-569.88 1634.45,-537.78 2014.55,-537.78 2014.55,-569.88"/>
<text text-anchor="middle" x="1824.5" y="-550.53" font-family="Arial" font-size="9.00">Types of autophagy: macroautophagy, microautophagy, chaperone&#45;mediated autophagy</text>
</g>
<!-- subtopic_11_point_1 -->
<g id="node63" class="node">
<title>subtopic_11_point_1</title>
<polygon fill="white" stroke="white" stroke-width="0" points="1873.71,-716.91 1640.61,-716.91 1640.61,-684.81 1873.71,-684.81 1873.71,-716.91"/>
<text text-anchor="middle" x="1757.16" y="-697.56" font-family="Arial" font-size="9.00">Role in cellular maintenance and response to stress</text>
</g>
<!-- subtopic_11_point_2 -->
<g id="node64" class="node">
<title>subtopic_11_point_2</title>
<polygon fill="white" stroke="white" stroke-width="0" points="1793.88,-893.81 1633.53,-893.81 1633.53,-861.71 1793.88,-861.71 1793.88,-893.81"/>
<text text-anchor="middle" x="1713.7" y="-874.46" font-family="Arial" font-size="9.00">Importance for preventing disease</text>
</g>
</g>
</svg>
