<?xml version="1.0" encoding="UTF-8" standalone="no"?>
<!DOCTYPE svg PUBLIC "-//W3C//DTD SVG 1.1//EN"
 "http://www.w3.org/Graphics/SVG/1.1/DTD/svg11.dtd">
<!-- Generated by graphviz version 12.2.1 (20241206.2353)
 -->
<!-- Title: G Pages: 1 -->
<svg width="4040pt" height="4500pt"
 viewBox="0.00 0.00 969.68 1080.00" xmlns="http://www.w3.org/2000/svg" xmlns:xlink="http://www.w3.org/1999/xlink">
<g id="graph0" class="graph" transform="scale(1.9489 1.9489) rotate(0) translate(144 2164.99)">
<title>G</title>
<polygon fill="white" stroke="none" points="-144,144 -144,-2164.99 1929.12,-2164.99 1929.12,144 -144,144"/>
<!-- root&#45;&gt;subtopic_0 -->
<g id="edge1" class="edge">
<title>root&#45;&gt;subtopic_0</title>
<path fill="none" stroke="black" stroke-width="0.5" d="M950.47,-1005.49C1046.27,-1062.03 1262.94,-1189.89 1339.66,-1235.17"/>
</g>
<!-- root&#45;&gt;subtopic_1 -->
<g id="edge6" class="edge">
<title>root&#45;&gt;subtopic_1</title>
<path fill="none" stroke="black" stroke-width="0.5" d="M888.55,-1005.6C840.25,-1092.22 692.51,-1357.16 654.67,-1425.01"/>
</g>
<!-- root&#45;&gt;subtopic_2 -->
<g id="edge11" class="edge">
<title>root&#45;&gt;subtopic_2</title>
<path fill="none" stroke="black" stroke-width="0.5" d="M856.52,-950.66C759.08,-894.4 538.83,-767.23 460.45,-721.98"/>
</g>
<!-- root&#45;&gt;subtopic_3 -->
<g id="edge16" class="edge">
<title>root&#45;&gt;subtopic_3</title>
<path fill="none" stroke="black" stroke-width="0.5" d="M919.54,-950.62C969.4,-863.09 1123.85,-591.99 1163.42,-522.54"/>
</g>
<!-- subtopic_0&#45;&gt;subtopic_0_point_0 -->
<g id="edge2" class="edge">
<title>subtopic_0&#45;&gt;subtopic_0_point_0</title>
<path fill="none" stroke="black" stroke-width="0.5" d="M1422.78,-1244.92C1443.43,-1242.49 1467.88,-1239.62 1492.59,-1236.73"/>
</g>
<!-- subtopic_0&#45;&gt;subtopic_0_point_1 -->
<g id="edge3" class="edge">
<title>subtopic_0&#45;&gt;subtopic_0_point_1</title>
<path fill="none" stroke="black" stroke-width="0.5" d="M1398.31,-1267.83C1447.36,-1293.7 1542.11,-1343.67 1590.58,-1369.24"/>
</g>
<!-- subtopic_0&#45;&gt;subtopic_0_point_2 -->
<g id="edge4" class="edge">
<title>subtopic_0&#45;&gt;subtopic_0_point_2</title>
<path fill="none" stroke="black" stroke-width="0.5" d="M1381.21,-1267.83C1425.64,-1319.91 1563.16,-1481.11 1607.09,-1532.6"/>
</g>
<!-- subtopic_0&#45;&gt;subtopic_0_point_3 -->
<g id="edge5" class="edge">
<title>subtopic_0&#45;&gt;subtopic_0_point_3</title>
<path fill="none" stroke="black" stroke-width="0.5" d="M1376.24,-1267.83C1415.76,-1339.62 1573.31,-1625.87 1612.08,-1696.31"/>
</g>
<!-- subtopic_1&#45;&gt;subtopic_1_point_0 -->
<g id="edge7" class="edge">
<title>subtopic_1&#45;&gt;subtopic_1_point_0</title>
<path fill="none" stroke="black" stroke-width="0.5" d="M619.61,-1457.27C596.24,-1471.83 562.21,-1493.02 539,-1507.48"/>
</g>
<!-- subtopic_1&#45;&gt;subtopic_1_point_1 -->
<g id="edge8" class="edge">
<title>subtopic_1&#45;&gt;subtopic_1_point_1</title>
<path fill="none" stroke="black" stroke-width="0.5" d="M637.64,-1457.27C615.95,-1500.79 556.84,-1619.34 535.44,-1662.27"/>
</g>
<!-- subtopic_1&#45;&gt;subtopic_1_point_2 -->
<g id="edge9" class="edge">
<title>subtopic_1&#45;&gt;subtopic_1_point_2</title>
<path fill="none" stroke="black" stroke-width="0.5" d="M640.99,-1457.18C621.9,-1521.86 551.24,-1761.28 532.28,-1825.54"/>
</g>
<!-- subtopic_1&#45;&gt;subtopic_1_point_3 -->
<g id="edge10" class="edge">
<title>subtopic_1&#45;&gt;subtopic_1_point_3</title>
<path fill="none" stroke="black" stroke-width="0.5" d="M642.36,-1457.25C625.14,-1539.42 547.87,-1908.08 530.88,-1989.14"/>
</g>
<!-- subtopic_2&#45;&gt;subtopic_2_point_0 -->
<g id="edge12" class="edge">
<title>subtopic_2&#45;&gt;subtopic_2_point_0</title>
<path fill="none" stroke="black" stroke-width="0.5" d="M417.57,-689.25C365.39,-630.47 187.87,-430.51 136.32,-372.44"/>
</g>
<!-- subtopic_2&#45;&gt;subtopic_2_point_1 -->
<g id="edge13" class="edge">
<title>subtopic_2&#45;&gt;subtopic_2_point_1</title>
<path fill="none" stroke="black" stroke-width="0.5" d="M404.87,-689.3C345.93,-653.99 207.17,-570.87 148.79,-535.89"/>
</g>
<!-- subtopic_2&#45;&gt;subtopic_2_point_2 -->
<g id="edge14" class="edge">
<title>subtopic_2&#45;&gt;subtopic_2_point_2</title>
<path fill="none" stroke="black" stroke-width="0.5" d="M328.9,-698.22C301.78,-696.27 272.27,-694.16 244.27,-692.15"/>
</g>
<!-- subtopic_2&#45;&gt;subtopic_2_point_3 -->
<g id="edge15" class="edge">
<title>subtopic_2&#45;&gt;subtopic_2_point_3</title>
<path fill="none" stroke="black" stroke-width="0.5" d="M396.24,-721.95C336.33,-749.25 216.61,-803.81 157.23,-830.86"/>
</g>
<!-- subtopic_3&#45;&gt;subtopic_3_point_0 -->
<g id="edge17" class="edge">
<title>subtopic_3&#45;&gt;subtopic_3_point_0</title>
<path fill="none" stroke="black" stroke-width="0.5" d="M1180.06,-489.89C1213.61,-415.14 1352.49,-105.76 1385.64,-31.92"/>
</g>
<!-- subtopic_3&#45;&gt;subtopic_3_point_1 -->
<g id="edge18" class="edge">
<title>subtopic_3&#45;&gt;subtopic_3_point_1</title>
<path fill="none" stroke="black" stroke-width="0.5" d="M1183.65,-489.99C1221.19,-434.24 1344.8,-250.72 1382.04,-195.41"/>
</g>
<!-- subtopic_3&#45;&gt;subtopic_3_point_2 -->
<g id="edge19" class="edge">
<title>subtopic_3&#45;&gt;subtopic_3_point_2</title>
<path fill="none" stroke="black" stroke-width="0.5" d="M1194.64,-489.95C1236.92,-458.57 1329.32,-390.01 1371.27,-358.88"/>
</g>
<!-- subtopic_3&#45;&gt;subtopic_3_point_3 -->
<g id="edge20" class="edge">
<title>subtopic_3&#45;&gt;subtopic_3_point_3</title>
<path fill="none" stroke="black" stroke-width="0.5" d="M1244.1,-506.26C1260.21,-506.27 1277.6,-506.29 1294.68,-506.3"/>
</g>
<!-- root -->
<g id="node1" class="node">
<title>root</title>
<path fill="white" stroke="white" stroke-width="0.5" d="M1035.92,-1005.62C1035.92,-1005.62 771.92,-1005.62 771.92,-1005.62 765.92,-1005.62 759.92,-999.62 759.92,-993.62 759.92,-993.62 759.92,-962.42 759.92,-962.42 759.92,-956.42 765.92,-950.42 771.92,-950.42 771.92,-950.42 1035.92,-950.42 1035.92,-950.42 1041.92,-950.42 1047.92,-956.42 1047.92,-962.42 1047.92,-962.42 1047.92,-993.62 1047.92,-993.62 1047.92,-999.62 1041.92,-1005.62 1035.92,-1005.62"/>
<text text-anchor="middle" x="903.92" y="-973.57" font-family="Arial-Bold" font-size="11.00">LIGHT: NATURE AND APPLICATIONS</text>
</g>
<!-- subtopic_0 -->
<g id="node2" class="node">
<title>subtopic_0</title>
<polygon fill="white" stroke="white" stroke-width="0" points="1423.02,-1267.86 1311.42,-1267.86 1311.42,-1235.01 1423.02,-1235.01 1423.02,-1267.86"/>
<text text-anchor="middle" x="1367.22" y="-1247.56" font-family="Arial-Bold" font-size="10.00">NATURE OF LIGHT</text>
</g>
<!-- subtopic_0_point_0 -->
<g id="node3" class="node">
<title>subtopic_0_point_0</title>
<polygon fill="white" stroke="white" stroke-width="0" points="1785.12,-1236.75 1473.27,-1236.75 1473.27,-1204.65 1785.12,-1204.65 1785.12,-1236.75"/>
<text text-anchor="middle" x="1629.2" y="-1217.4" font-family="Arial" font-size="9.00">Wave properties: wavelength, frequency, speed, interference, diffraction</text>
</g>
<!-- subtopic_0_point_1 -->
<g id="node4" class="node">
<title>subtopic_0_point_1</title>
<polygon fill="white" stroke="white" stroke-width="0" points="1770.66,-1401.19 1470.81,-1401.19 1470.81,-1369.09 1770.66,-1369.09 1770.66,-1401.19"/>
<text text-anchor="middle" x="1620.73" y="-1381.84" font-family="Arial" font-size="9.00">Particle properties: photons, energy quantization, photoelectric effect</text>
</g>
<!-- subtopic_0_point_2 -->
<g id="node5" class="node">
<title>subtopic_0_point_2</title>
<polygon fill="white" stroke="white" stroke-width="0" points="1770.66,-1564.63 1470.81,-1564.63 1470.81,-1532.53 1770.66,-1532.53 1770.66,-1564.63"/>
<text text-anchor="middle" x="1620.73" y="-1545.28" font-family="Arial" font-size="9.00">Electromagnetic spectrum: different types of light and their properties</text>
</g>
<!-- subtopic_0_point_3 -->
<g id="node6" class="node">
<title>subtopic_0_point_3</title>
<polygon fill="white" stroke="white" stroke-width="0" points="1714.41,-1728.08 1527.06,-1728.08 1527.06,-1695.98 1714.41,-1695.98 1714.41,-1728.08"/>
<text text-anchor="middle" x="1620.73" y="-1708.73" font-family="Arial" font-size="9.00">Wave&#45;particle duality and its implications</text>
</g>
<!-- subtopic_1 -->
<g id="node7" class="node">
<title>subtopic_1</title>
<polygon fill="white" stroke="white" stroke-width="0" points="734.94,-1457.4 556.59,-1457.4 556.59,-1424.55 734.94,-1424.55 734.94,-1457.4"/>
<text text-anchor="middle" x="645.77" y="-1437.1" font-family="Arial-Bold" font-size="10.00">REFLECTION AND REFRACTION</text>
</g>
<!-- subtopic_1_point_0 -->
<g id="node8" class="node">
<title>subtopic_1_point_0</title>
<polygon fill="white" stroke="white" stroke-width="0" points="589.02,-1539.51 437.67,-1539.51 437.67,-1507.41 589.02,-1507.41 589.02,-1539.51"/>
<text text-anchor="middle" x="513.34" y="-1520.16" font-family="Arial" font-size="9.00">Laws of reflection and refraction</text>
</g>
<!-- subtopic_1_point_1 -->
<g id="node9" class="node">
<title>subtopic_1_point_1</title>
<polygon fill="white" stroke="white" stroke-width="0" points="600.62,-1694.1 454.52,-1694.1 454.52,-1662 600.62,-1662 600.62,-1694.1"/>
<text text-anchor="middle" x="527.57" y="-1674.75" font-family="Arial" font-size="9.00">Snell&#39;s law and its applications</text>
</g>
<!-- subtopic_1_point_2 -->
<g id="node10" class="node">
<title>subtopic_1_point_2</title>
<polygon fill="white" stroke="white" stroke-width="0" points="664.75,-1857.55 390.4,-1857.55 390.4,-1825.45 664.75,-1825.45 664.75,-1857.55"/>
<text text-anchor="middle" x="527.57" y="-1838.2" font-family="Arial" font-size="9.00">Total internal reflection and its applications (e.g., optical fibers)</text>
</g>
<!-- subtopic_1_point_3 -->
<g id="node11" class="node">
<title>subtopic_1_point_3</title>
<polygon fill="white" stroke="white" stroke-width="0" points="611.5,-2020.99 443.65,-2020.99 443.65,-1988.89 611.5,-1988.89 611.5,-2020.99"/>
<text text-anchor="middle" x="527.57" y="-2001.64" font-family="Arial" font-size="9.00">Refractive index and its significance</text>
</g>
<!-- subtopic_2 -->
<g id="node12" class="node">
<title>subtopic_2</title>
<polygon fill="white" stroke="white" stroke-width="0" points="535.52,-722.04 328.67,-722.04 328.67,-689.19 535.52,-689.19 535.52,-722.04"/>
<text text-anchor="middle" x="432.1" y="-701.74" font-family="Arial-Bold" font-size="10.00">LENSES AND OPTICAL INSTRUMENTS</text>
</g>
<!-- subtopic_2_point_0 -->
<g id="node13" class="node">
<title>subtopic_2_point_0</title>
<polygon fill="white" stroke="white" stroke-width="0" points="221.1,-372.55 23.25,-372.55 23.25,-340.45 221.1,-340.45 221.1,-372.55"/>
<text text-anchor="middle" x="122.17" y="-353.2" font-family="Arial" font-size="9.00">Types of lenses (converging and diverging)</text>
</g>
<!-- subtopic_2_point_1 -->
<g id="node14" class="node">
<title>subtopic_2_point_1</title>
<polygon fill="white" stroke="white" stroke-width="0" points="197.1,-536 47.25,-536 47.25,-503.9 197.1,-503.9 197.1,-536"/>
<text text-anchor="middle" x="122.17" y="-516.65" font-family="Arial" font-size="9.00">Lens formula and magnification</text>
</g>
<!-- subtopic_2_point_2 -->
<g id="node15" class="node">
<title>subtopic_2_point_2</title>
<polygon fill="white" stroke="white" stroke-width="0" points="244.35,-699.44 0,-699.44 0,-667.34 244.35,-667.34 244.35,-699.44"/>
<text text-anchor="middle" x="122.17" y="-680.09" font-family="Arial" font-size="9.00">Optical instruments: microscopes, telescopes, cameras</text>
</g>
<!-- subtopic_2_point_3 -->
<g id="node16" class="node">
<title>subtopic_2_point_3</title>
<polygon fill="white" stroke="white" stroke-width="0" points="211.72,-862.89 32.62,-862.89 32.62,-830.79 211.72,-830.79 211.72,-862.89"/>
<text text-anchor="middle" x="122.17" y="-843.54" font-family="Arial" font-size="9.00">Image formation by lenses and the eye</text>
</g>
<!-- subtopic_3 -->
<g id="node17" class="node">
<title>subtopic_3</title>
<polygon fill="white" stroke="white" stroke-width="0" points="1244.29,-522.62 1101.19,-522.62 1101.19,-489.77 1244.29,-489.77 1244.29,-522.62"/>
<text text-anchor="middle" x="1172.74" y="-502.32" font-family="Arial-Bold" font-size="10.00">APPLICATIONS OF LIGHT</text>
</g>
<!-- subtopic_3_point_0 -->
<g id="node18" class="node">
<title>subtopic_3_point_0</title>
<polygon fill="white" stroke="white" stroke-width="0" points="1471.44,-32.1 1314.09,-32.1 1314.09,0 1471.44,0 1471.44,-32.1"/>
<text text-anchor="middle" x="1392.76" y="-12.75" font-family="Arial" font-size="9.00">Optical fibers and communication</text>
</g>
<!-- subtopic_3_point_1 -->
<g id="node19" class="node">
<title>subtopic_3_point_1</title>
<polygon fill="white" stroke="white" stroke-width="0" points="1513.44,-195.55 1272.09,-195.55 1272.09,-163.45 1513.44,-163.45 1513.44,-195.55"/>
<text text-anchor="middle" x="1392.76" y="-176.2" font-family="Arial" font-size="9.00">Lasers and their applications (e.g., medicine, industry)</text>
</g>
<!-- subtopic_3_point_2 -->
<g id="node20" class="node">
<title>subtopic_3_point_2</title>
<polygon fill="white" stroke="white" stroke-width="0" points="1468.06,-358.99 1317.46,-358.99 1317.46,-326.89 1468.06,-326.89 1468.06,-358.99"/>
<text text-anchor="middle" x="1392.76" y="-339.64" font-family="Arial" font-size="9.00">Holography and its applications</text>
</g>
<!-- subtopic_3_point_3 -->
<g id="node21" class="node">
<title>subtopic_3_point_3</title>
<polygon fill="white" stroke="white" stroke-width="0" points="1498.27,-522.44 1294.42,-522.44 1294.42,-490.34 1498.27,-490.34 1498.27,-522.44"/>
<text text-anchor="middle" x="1396.34" y="-503.09" font-family="Arial" font-size="9.00">Spectroscopy and its applications in analysis</text>
</g>
</g>
</svg>
