<?xml version="1.0" encoding="UTF-8" standalone="no"?>
<!DOCTYPE svg PUBLIC "-//W3C//DTD SVG 1.1//EN"
 "http://www.w3.org/Graphics/SVG/1.1/DTD/svg11.dtd">
<!-- Generated by graphviz version 12.2.1 (20241206.2353)
 -->
<!-- Title: G Pages: 1 -->
<svg width="3835pt" height="4500pt"
 viewBox="0.00 0.00 920.38 1080.00" xmlns="http://www.w3.org/2000/svg" xmlns:xlink="http://www.w3.org/1999/xlink">
<g id="graph0" class="graph" transform="scale(1.36004 1.36004) rotate(0) translate(144 3164.73)">
<title>G</title>
<polygon fill="white" stroke="none" points="-144,144 -144,-3164.73 2675.72,-3164.73 2675.72,144 -144,144"/>
<!-- root&#45;&gt;subtopic_0 -->
<g id="edge1" class="edge">
<title>root&#45;&gt;subtopic_0</title>
<path fill="none" stroke="black" stroke-width="0.5" d="M1364.52,-1426.83C1496.01,-1440.02 1687.37,-1459.22 1805.37,-1471.06"/>
</g>
<!-- root&#45;&gt;subtopic_1 -->
<g id="edge7" class="edge">
<title>root&#45;&gt;subtopic_1</title>
<path fill="none" stroke="black" stroke-width="0.5" d="M1233.64,-1439.73C1283.57,-1543.83 1460.94,-1913.68 1500.48,-1996.14"/>
</g>
<!-- root&#45;&gt;subtopic_2 -->
<g id="edge13" class="edge">
<title>root&#45;&gt;subtopic_2</title>
<path fill="none" stroke="black" stroke-width="0.5" d="M1211.3,-1439.82C1173.91,-1551 1034.3,-1966.18 1004.73,-2054.1"/>
</g>
<!-- root&#45;&gt;subtopic_3 -->
<g id="edge20" class="edge">
<title>root&#45;&gt;subtopic_3</title>
<path fill="none" stroke="black" stroke-width="0.5" d="M1144.72,-1439.95C1007.69,-1489.78 722.82,-1593.38 612.74,-1633.41"/>
</g>
<!-- root&#45;&gt;subtopic_4 -->
<g id="edge26" class="edge">
<title>root&#45;&gt;subtopic_4</title>
<path fill="none" stroke="black" stroke-width="0.5" d="M1175.52,-1384.86C1058.6,-1313.37 747.95,-1123.42 654.86,-1066.5"/>
</g>
<!-- root&#45;&gt;subtopic_5 -->
<g id="edge31" class="edge">
<title>root&#45;&gt;subtopic_5</title>
<path fill="none" stroke="black" stroke-width="0.5" d="M1217.1,-1384.95C1202.76,-1270.2 1147.82,-830.48 1136.49,-739.84"/>
</g>
<!-- root&#45;&gt;subtopic_6 -->
<g id="edge36" class="edge">
<title>root&#45;&gt;subtopic_6</title>
<path fill="none" stroke="black" stroke-width="0.5" d="M1246.82,-1384.99C1334.03,-1294.16 1612.1,-1004.53 1681.3,-932.45"/>
</g>
<!-- subtopic_0&#45;&gt;subtopic_0_point_0 -->
<g id="edge2" class="edge">
<title>subtopic_0&#45;&gt;subtopic_0_point_0</title>
<path fill="none" stroke="black" stroke-width="0.5" d="M1933.67,-1465.29C2003.73,-1413.63 2219.23,-1254.71 2288.05,-1203.96"/>
</g>
<!-- subtopic_0&#45;&gt;subtopic_0_point_1 -->
<g id="edge3" class="edge">
<title>subtopic_0&#45;&gt;subtopic_0_point_1</title>
<path fill="none" stroke="black" stroke-width="0.5" d="M1987.68,-1465.38C2058.78,-1450.16 2164.18,-1427.6 2234.76,-1412.49"/>
</g>
<!-- subtopic_0&#45;&gt;subtopic_0_point_2 -->
<g id="edge4" class="edge">
<title>subtopic_0&#45;&gt;subtopic_0_point_2</title>
<path fill="none" stroke="black" stroke-width="0.5" d="M1964.27,-1498.05C2040.81,-1521.73 2181.66,-1565.3 2257.61,-1588.79"/>
</g>
<!-- subtopic_0&#45;&gt;subtopic_0_point_3 -->
<g id="edge5" class="edge">
<title>subtopic_0&#45;&gt;subtopic_0_point_3</title>
<path fill="none" stroke="black" stroke-width="0.5" d="M1930.88,-1497.91C1998.61,-1554.32 2223.51,-1741.59 2290.46,-1797.34"/>
</g>
<!-- subtopic_0&#45;&gt;subtopic_0_point_4 -->
<g id="edge6" class="edge">
<title>subtopic_0&#45;&gt;subtopic_0_point_4</title>
<path fill="none" stroke="black" stroke-width="0.5" d="M1923.33,-1497.86C1981.98,-1577.4 2239.64,-1926.8 2297.75,-2005.6"/>
</g>
<!-- subtopic_1&#45;&gt;subtopic_1_point_0 -->
<g id="edge8" class="edge">
<title>subtopic_1&#45;&gt;subtopic_1_point_0</title>
<path fill="none" stroke="black" stroke-width="0.5" d="M1594.92,-1996.17C1643.73,-1986.95 1704.47,-1975.49 1753,-1966.33"/>
</g>
<!-- subtopic_1&#45;&gt;subtopic_1_point_1 -->
<g id="edge9" class="edge">
<title>subtopic_1&#45;&gt;subtopic_1_point_1</title>
<path fill="none" stroke="black" stroke-width="0.5" d="M1532.29,-2028.73C1578.54,-2060.03 1679.6,-2128.43 1725.49,-2159.48"/>
</g>
<!-- subtopic_1&#45;&gt;subtopic_1_point_2 -->
<g id="edge10" class="edge">
<title>subtopic_1&#45;&gt;subtopic_1_point_2</title>
<path fill="none" stroke="black" stroke-width="0.5" d="M1518.68,-2028.46C1558.17,-2089.38 1699.26,-2306.99 1738.69,-2367.81"/>
</g>
<!-- subtopic_1&#45;&gt;subtopic_1_point_3 -->
<g id="edge11" class="edge">
<title>subtopic_1&#45;&gt;subtopic_1_point_3</title>
<path fill="none" stroke="black" stroke-width="0.5" d="M1515.15,-2028.92C1549.99,-2112.82 1707.92,-2493.1 1742.35,-2576.01"/>
</g>
<!-- subtopic_1&#45;&gt;subtopic_1_point_4 -->
<g id="edge12" class="edge">
<title>subtopic_1&#45;&gt;subtopic_1_point_4</title>
<path fill="none" stroke="black" stroke-width="0.5" d="M1513.25,-2028.61C1544.35,-2130.4 1713.4,-2683.82 1744.18,-2784.57"/>
</g>
<!-- subtopic_2&#45;&gt;subtopic_2_point_0 -->
<g id="edge14" class="edge">
<title>subtopic_2&#45;&gt;subtopic_2_point_0</title>
<path fill="none" stroke="black" stroke-width="0.5" d="M991.36,-2054.21C981.53,-2033.8 964.81,-1999.07 955.1,-1978.91"/>
</g>
<!-- subtopic_2&#45;&gt;subtopic_2_point_1 -->
<g id="edge15" class="edge">
<title>subtopic_2&#45;&gt;subtopic_2_point_1</title>
<path fill="none" stroke="black" stroke-width="0.5" d="M990.9,-2086.74C981.2,-2105.69 965.25,-2136.83 955.63,-2155.61"/>
</g>
<!-- subtopic_2&#45;&gt;subtopic_2_point_2 -->
<g id="edge16" class="edge">
<title>subtopic_2&#45;&gt;subtopic_2_point_2</title>
<path fill="none" stroke="black" stroke-width="0.5" d="M996.5,-2086.71C987.57,-2140.15 959.09,-2310.53 950.2,-2363.73"/>
</g>
<!-- subtopic_2&#45;&gt;subtopic_2_point_3 -->
<g id="edge17" class="edge">
<title>subtopic_2&#45;&gt;subtopic_2_point_3</title>
<path fill="none" stroke="black" stroke-width="0.5" d="M997.58,-2086.87C989.82,-2164.53 956.74,-2495.68 949.1,-2572.23"/>
</g>
<!-- subtopic_2&#45;&gt;subtopic_2_point_4 -->
<g id="edge18" class="edge">
<title>subtopic_2&#45;&gt;subtopic_2_point_4</title>
<path fill="none" stroke="black" stroke-width="0.5" d="M998.06,-2086.7C991.17,-2183.44 955.48,-2684.49 948.65,-2780.47"/>
</g>
<!-- subtopic_2&#45;&gt;subtopic_2_point_5 -->
<g id="edge19" class="edge">
<title>subtopic_2&#45;&gt;subtopic_2_point_5</title>
<path fill="none" stroke="black" stroke-width="0.5" d="M998.31,-2086.74C992.02,-2200.36 954.63,-2876.06 948.4,-2988.75"/>
</g>
<!-- subtopic_3&#45;&gt;subtopic_3_point_0 -->
<g id="edge21" class="edge">
<title>subtopic_3&#45;&gt;subtopic_3_point_0</title>
<path fill="none" stroke="black" stroke-width="0.5" d="M538.9,-1633.38C471.92,-1595.83 307.45,-1503.62 241.05,-1466.39"/>
</g>
<!-- subtopic_3&#45;&gt;subtopic_3_point_1 -->
<g id="edge22" class="edge">
<title>subtopic_3&#45;&gt;subtopic_3_point_1</title>
<path fill="none" stroke="black" stroke-width="0.5" d="M432.34,-1653.14C406.26,-1653.8 378.9,-1654.49 352.68,-1655.16"/>
</g>
<!-- subtopic_3&#45;&gt;subtopic_3_point_2 -->
<g id="edge23" class="edge">
<title>subtopic_3&#45;&gt;subtopic_3_point_2</title>
<path fill="none" stroke="black" stroke-width="0.5" d="M541.27,-1666.03C475.08,-1706.5 304.1,-1811.04 238.61,-1851.09"/>
</g>
<!-- subtopic_3&#45;&gt;subtopic_3_point_3 -->
<g id="edge24" class="edge">
<title>subtopic_3&#45;&gt;subtopic_3_point_3</title>
<path fill="none" stroke="black" stroke-width="0.5" d="M554.27,-1666.12C497.5,-1734.1 281.27,-1993.03 225.66,-2059.63"/>
</g>
<!-- subtopic_3&#45;&gt;subtopic_3_point_4 -->
<g id="edge25" class="edge">
<title>subtopic_3&#45;&gt;subtopic_3_point_4</title>
<path fill="none" stroke="black" stroke-width="0.5" d="M558.84,-1666C509.02,-1754.86 270.73,-2179.87 221.47,-2267.73"/>
</g>
<!-- subtopic_4&#45;&gt;subtopic_4_point_0 -->
<g id="edge27" class="edge">
<title>subtopic_4&#45;&gt;subtopic_4_point_0</title>
<path fill="none" stroke="black" stroke-width="0.5" d="M614.2,-1033.98C553.31,-963.24 310.94,-681.66 250.38,-611.31"/>
</g>
<!-- subtopic_4&#45;&gt;subtopic_4_point_1 -->
<g id="edge28" class="edge">
<title>subtopic_4&#45;&gt;subtopic_4_point_1</title>
<path fill="none" stroke="black" stroke-width="0.5" d="M602.15,-1033.8C530.84,-988.9 332.77,-864.17 262.08,-819.66"/>
</g>
<!-- subtopic_4&#45;&gt;subtopic_4_point_2 -->
<g id="edge29" class="edge">
<title>subtopic_4&#45;&gt;subtopic_4_point_2</title>
<path fill="none" stroke="black" stroke-width="0.5" d="M514.37,-1039.05C474.18,-1035.13 428.36,-1030.66 385.69,-1026.49"/>
</g>
<!-- subtopic_4&#45;&gt;subtopic_4_point_3 -->
<g id="edge30" class="edge">
<title>subtopic_4&#45;&gt;subtopic_4_point_3</title>
<path fill="none" stroke="black" stroke-width="0.5" d="M590.6,-1066.47C515.57,-1099.06 347.93,-1171.88 273.47,-1204.23"/>
</g>
<!-- subtopic_5&#45;&gt;subtopic_5_point_0 -->
<g id="edge32" class="edge">
<title>subtopic_5&#45;&gt;subtopic_5_point_0</title>
<path fill="none" stroke="black" stroke-width="0.5" d="M1131.42,-707.33C1113.57,-612.32 1022.22,-125.92 1004.54,-31.82"/>
</g>
<!-- subtopic_5&#45;&gt;subtopic_5_point_1 -->
<g id="edge33" class="edge">
<title>subtopic_5&#45;&gt;subtopic_5_point_1</title>
<path fill="none" stroke="black" stroke-width="0.5" d="M1130.09,-707.11C1109.93,-631.35 1025.57,-314.48 1005.76,-240.05"/>
</g>
<!-- subtopic_5&#45;&gt;subtopic_5_point_2 -->
<g id="edge34" class="edge">
<title>subtopic_5&#45;&gt;subtopic_5_point_2</title>
<path fill="none" stroke="black" stroke-width="0.5" d="M1127.11,-707.39C1103.88,-656.55 1032.09,-499.43 1008.89,-448.66"/>
</g>
<!-- subtopic_5&#45;&gt;subtopic_5_point_3 -->
<g id="edge35" class="edge">
<title>subtopic_5&#45;&gt;subtopic_5_point_3</title>
<path fill="none" stroke="black" stroke-width="0.5" d="M1108.18,-707.13C1084.72,-692.58 1050.57,-671.38 1027.27,-656.91"/>
</g>
<!-- subtopic_6&#45;&gt;subtopic_6_point_0 -->
<g id="edge37" class="edge">
<title>subtopic_6&#45;&gt;subtopic_6_point_0</title>
<path fill="none" stroke="black" stroke-width="0.5" d="M1705.73,-899.98C1754.5,-809.92 1992.93,-369.61 2041.32,-280.26"/>
</g>
<!-- subtopic_6&#45;&gt;subtopic_6_point_1 -->
<g id="edge38" class="edge">
<title>subtopic_6&#45;&gt;subtopic_6_point_1</title>
<path fill="none" stroke="black" stroke-width="0.5" d="M1709.99,-899.78C1765.45,-830.11 1982.21,-557.77 2037.17,-488.71"/>
</g>
<!-- subtopic_6&#45;&gt;subtopic_6_point_2 -->
<g id="edge39" class="edge">
<title>subtopic_6&#45;&gt;subtopic_6_point_2</title>
<path fill="none" stroke="black" stroke-width="0.5" d="M1721.54,-899.75C1786.41,-856.54 1961.84,-739.69 2025.99,-696.96"/>
</g>
<!-- subtopic_6&#45;&gt;subtopic_6_point_3 -->
<g id="edge40" class="edge">
<title>subtopic_6&#45;&gt;subtopic_6_point_3</title>
<path fill="none" stroke="black" stroke-width="0.5" d="M1836.6,-905.51C1853.17,-904.25 1870.23,-902.96 1887.17,-901.68"/>
</g>
<!-- subtopic_6&#45;&gt;subtopic_6_point_4 -->
<g id="edge41" class="edge">
<title>subtopic_6&#45;&gt;subtopic_6_point_4</title>
<path fill="none" stroke="black" stroke-width="0.5" d="M1728.64,-932.36C1795.8,-966.92 1951.96,-1047.26 2018.72,-1081.61"/>
</g>
<!-- root -->
<g id="node1" class="node">
<title>root</title>
<path fill="white" stroke="white" stroke-width="0.5" d="M1352.53,-1439.98C1352.53,-1439.98 1088.53,-1439.98 1088.53,-1439.98 1082.53,-1439.98 1076.53,-1433.98 1076.53,-1427.98 1076.53,-1427.98 1076.53,-1396.78 1076.53,-1396.78 1076.53,-1390.78 1082.53,-1384.78 1088.53,-1384.78 1088.53,-1384.78 1352.53,-1384.78 1352.53,-1384.78 1358.53,-1384.78 1364.53,-1390.78 1364.53,-1396.78 1364.53,-1396.78 1364.53,-1427.98 1364.53,-1427.98 1364.53,-1433.98 1358.53,-1439.98 1352.53,-1439.98"/>
<text text-anchor="middle" x="1220.53" y="-1407.93" font-family="Arial-Bold" font-size="11.00">PHOTOSYNTHESIS</text>
</g>
<!-- subtopic_0 -->
<g id="node2" class="node">
<title>subtopic_0</title>
<polygon fill="white" stroke="white" stroke-width="0" points="2017.46,-1498.13 1805.36,-1498.13 1805.36,-1465.28 2017.46,-1465.28 2017.46,-1498.13"/>
<text text-anchor="middle" x="1911.41" y="-1477.83" font-family="Arial-Bold" font-size="10.00">INTRODUCTION TO PHOTOSYNTHESIS</text>
</g>
<!-- subtopic_0_point_0 -->
<g id="node3" class="node">
<title>subtopic_0_point_0</title>
<polygon fill="white" stroke="white" stroke-width="0" points="2494.97,-1204.26 2123.87,-1204.26 2123.87,-1172.16 2494.97,-1172.16 2494.97,-1204.26"/>
<text text-anchor="middle" x="2309.42" y="-1184.91" font-family="Arial" font-size="9.00">Photosynthesis is the process by which light energy is converted into chemical energy.</text>
</g>
<!-- subtopic_0_point_1 -->
<g id="node4" class="node">
<title>subtopic_0_point_1</title>
<polygon fill="white" stroke="white" stroke-width="0" points="2439.85,-1412.56 2179,-1412.56 2179,-1380.46 2439.85,-1380.46 2439.85,-1412.56"/>
<text text-anchor="middle" x="2309.42" y="-1393.21" font-family="Arial" font-size="9.00">Oxygenic photosynthesis produces oxygen as a byproduct.</text>
</g>
<!-- subtopic_0_point_2 -->
<g id="node5" class="node">
<title>subtopic_0_point_2</title>
<polygon fill="white" stroke="white" stroke-width="0" points="2500.6,-1620.87 2118.25,-1620.87 2118.25,-1588.77 2500.6,-1588.77 2500.6,-1620.87"/>
<text text-anchor="middle" x="2309.42" y="-1601.52" font-family="Arial" font-size="9.00">Anoxygenic photosynthesis uses different electron donors and does not produce oxygen.</text>
</g>
<!-- subtopic_0_point_3 -->
<g id="node6" class="node">
<title>subtopic_0_point_3</title>
<polygon fill="white" stroke="white" stroke-width="0" points="2482.6,-1829.18 2136.25,-1829.18 2136.25,-1797.08 2482.6,-1797.08 2482.6,-1829.18"/>
<text text-anchor="middle" x="2309.42" y="-1809.83" font-family="Arial" font-size="9.00">Photosynthesis is crucial for maintaining Earth&#39;s atmosphere and supporting life.</text>
</g>
<!-- subtopic_0_point_4 -->
<g id="node7" class="node">
<title>subtopic_0_point_4</title>
<polygon fill="white" stroke="white" stroke-width="0" points="2531.72,-2037.48 2087.12,-2037.48 2087.12,-2005.38 2531.72,-2005.38 2531.72,-2037.48"/>
<text text-anchor="middle" x="2309.42" y="-2018.13" font-family="Arial" font-size="9.00">Photoautotrophs synthesize food from CO2 and water, while photoheterotrophs use organic compounds.</text>
</g>
<!-- subtopic_1 -->
<g id="node8" class="node">
<title>subtopic_1</title>
<polygon fill="white" stroke="white" stroke-width="0" points="1647.01,-2028.94 1369.66,-2028.94 1369.66,-1996.09 1647.01,-1996.09 1647.01,-2028.94"/>
<text text-anchor="middle" x="1508.34" y="-2008.64" font-family="Arial-Bold" font-size="10.00">PHOTOSYNTHETIC MEMBRANES AND ORGANELLES</text>
</g>
<!-- subtopic_1_point_0 -->
<g id="node9" class="node">
<title>subtopic_1_point_0</title>
<polygon fill="white" stroke="white" stroke-width="0" points="1978.41,-1966.36 1697.31,-1966.36 1697.31,-1934.26 1978.41,-1934.26 1978.41,-1966.36"/>
<text text-anchor="middle" x="1837.86" y="-1947.01" font-family="Arial" font-size="9.00">Chloroplasts are the sites of photosynthesis in plants and algae.</text>
</g>
<!-- subtopic_1_point_1 -->
<g id="node10" class="node">
<title>subtopic_1_point_1</title>
<polygon fill="white" stroke="white" stroke-width="0" points="1976.91,-2191.44 1521.06,-2191.44 1521.06,-2159.34 1976.91,-2159.34 1976.91,-2191.44"/>
<text text-anchor="middle" x="1748.99" y="-2172.09" font-family="Arial" font-size="9.00">Thylakoids are membrane&#45;bound compartments within chloroplasts where light&#45;dependent reactions occur.</text>
</g>
<!-- subtopic_1_point_2 -->
<g id="node11" class="node">
<title>subtopic_1_point_2</title>
<polygon fill="white" stroke="white" stroke-width="0" points="1882.79,-2399.75 1615.19,-2399.75 1615.19,-2367.65 1882.79,-2367.65 1882.79,-2399.75"/>
<text text-anchor="middle" x="1748.99" y="-2380.4" font-family="Arial" font-size="9.00">Photosynthetic pigments like chlorophyll absorb light energy.</text>
</g>
<!-- subtopic_1_point_3 -->
<g id="node12" class="node">
<title>subtopic_1_point_3</title>
<polygon fill="white" stroke="white" stroke-width="0" points="1876.04,-2608.05 1621.94,-2608.05 1621.94,-2575.95 1876.04,-2575.95 1876.04,-2608.05"/>
<text text-anchor="middle" x="1748.99" y="-2588.7" font-family="Arial" font-size="9.00">Accessory pigments broaden the range of light absorbed.</text>
</g>
<!-- subtopic_1_point_4 -->
<g id="node13" class="node">
<title>subtopic_1_point_4</title>
<polygon fill="white" stroke="white" stroke-width="0" points="1940.91,-2816.36 1557.06,-2816.36 1557.06,-2784.26 1940.91,-2784.26 1940.91,-2816.36"/>
<text text-anchor="middle" x="1748.99" y="-2797.01" font-family="Arial" font-size="9.00">Bacteria embed photosynthetic proteins in their cell membranes or specialized structures.</text>
</g>
<!-- subtopic_2 -->
<g id="node14" class="node">
<title>subtopic_2</title>
<polygon fill="white" stroke="white" stroke-width="0" points="1088.76,-2086.95 909.66,-2086.95 909.66,-2054.1 1088.76,-2054.1 1088.76,-2086.95"/>
<text text-anchor="middle" x="999.21" y="-2066.65" font-family="Arial-Bold" font-size="10.00">LIGHT&#45;DEPENDENT REACTIONS</text>
</g>
<!-- subtopic_2_point_0 -->
<g id="node15" class="node">
<title>subtopic_2_point_0</title>
<polygon fill="white" stroke="white" stroke-width="0" points="1075.69,-1979.2 819.34,-1979.2 819.34,-1947.1 1075.69,-1947.1 1075.69,-1979.2"/>
<text text-anchor="middle" x="947.52" y="-1959.85" font-family="Arial" font-size="9.00">Light absorption by chlorophyll initiates electron transport.</text>
</g>
<!-- subtopic_2_point_1 -->
<g id="node16" class="node">
<title>subtopic_2_point_1</title>
<polygon fill="white" stroke="white" stroke-width="0" points="1086.19,-2187.51 808.84,-2187.51 808.84,-2155.41 1086.19,-2155.41 1086.19,-2187.51"/>
<text text-anchor="middle" x="947.52" y="-2168.16" font-family="Arial" font-size="9.00">Electron transport chain generates ATP through chemiosmosis.</text>
</g>
<!-- subtopic_2_point_2 -->
<g id="node17" class="node">
<title>subtopic_2_point_2</title>
<polygon fill="white" stroke="white" stroke-width="0" points="1075.69,-2395.81 819.34,-2395.81 819.34,-2363.71 1075.69,-2363.71 1075.69,-2395.81"/>
<text text-anchor="middle" x="947.52" y="-2376.46" font-family="Arial" font-size="9.00">Water photolysis provides electrons and releases oxygen.</text>
</g>
<!-- subtopic_2_point_3 -->
<g id="node18" class="node">
<title>subtopic_2_point_3</title>
<polygon fill="white" stroke="white" stroke-width="0" points="1042.32,-2604.12 852.72,-2604.12 852.72,-2572.02 1042.32,-2572.02 1042.32,-2604.12"/>
<text text-anchor="middle" x="947.52" y="-2584.77" font-family="Arial" font-size="9.00">NADPH is produced as a reducing agent.</text>
</g>
<!-- subtopic_2_point_4 -->
<g id="node19" class="node">
<title>subtopic_2_point_4</title>
<polygon fill="white" stroke="white" stroke-width="0" points="1107.57,-2812.43 787.47,-2812.43 787.47,-2780.33 1107.57,-2780.33 1107.57,-2812.43"/>
<text text-anchor="middle" x="947.52" y="-2793.08" font-family="Arial" font-size="9.00">Z&#45;scheme describes the electron flow in non&#45;cyclic photophosphorylation.</text>
</g>
<!-- subtopic_2_point_5 -->
<g id="node20" class="node">
<title>subtopic_2_point_5</title>
<polygon fill="white" stroke="white" stroke-width="0" points="1057.69,-3020.73 837.34,-3020.73 837.34,-2988.63 1057.69,-2988.63 1057.69,-3020.73"/>
<text text-anchor="middle" x="947.52" y="-3001.38" font-family="Arial" font-size="9.00">Cyclic photophosphorylation generates only ATP.</text>
</g>
<!-- subtopic_3 -->
<g id="node21" class="node">
<title>subtopic_3</title>
<polygon fill="white" stroke="white" stroke-width="0" points="703.66,-1666.12 432.31,-1666.12 432.31,-1633.27 703.66,-1633.27 703.66,-1666.12"/>
<text text-anchor="middle" x="567.98" y="-1645.82" font-family="Arial-Bold" font-size="10.00">LIGHT&#45;INDEPENDENT REACTIONS (CALVIN CYCLE)</text>
</g>
<!-- subtopic_3_point_0 -->
<g id="node22" class="node">
<title>subtopic_3_point_0</title>
<polygon fill="white" stroke="white" stroke-width="0" points="323.48,-1466.46 101.63,-1466.46 101.63,-1434.36 323.48,-1434.36 323.48,-1466.46"/>
<text text-anchor="middle" x="212.55" y="-1447.11" font-family="Arial" font-size="9.00">RuBisCO catalyzes the fixation of CO2 into RuBP.</text>
</g>
<!-- subtopic_3_point_1 -->
<g id="node23" class="node">
<title>subtopic_3_point_1</title>
<polygon fill="white" stroke="white" stroke-width="0" points="352.73,-1674.77 72.38,-1674.77 72.38,-1642.67 352.73,-1642.67 352.73,-1674.77"/>
<text text-anchor="middle" x="212.55" y="-1655.42" font-family="Arial" font-size="9.00">ATP and NADPH from light&#45;dependent reactions drive the cycle.</text>
</g>
<!-- subtopic_3_point_2 -->
<g id="node24" class="node">
<title>subtopic_3_point_2</title>
<polygon fill="white" stroke="white" stroke-width="0" points="425.1,-1883.07 0,-1883.07 0,-1850.97 425.1,-1850.97 425.1,-1883.07"/>
<text text-anchor="middle" x="212.55" y="-1863.72" font-family="Arial" font-size="9.00">Three&#45;carbon sugars (G3P) are produced and used to synthesize glucose and other carbohydrates.</text>
</g>
<!-- subtopic_3_point_3 -->
<g id="node25" class="node">
<title>subtopic_3_point_3</title>
<polygon fill="white" stroke="white" stroke-width="0" points="336.6,-2091.38 88.5,-2091.38 88.5,-2059.28 336.6,-2059.28 336.6,-2091.38"/>
<text text-anchor="middle" x="212.55" y="-2072.03" font-family="Arial" font-size="9.00">Regeneration of RuBP ensures the cycle&#39;s continuation.</text>
</g>
<!-- subtopic_3_point_4 -->
<g id="node26" class="node">
<title>subtopic_3_point_4</title>
<polygon fill="white" stroke="white" stroke-width="0" points="417.98,-2299.69 7.12,-2299.69 7.12,-2267.59 417.98,-2267.59 417.98,-2299.69"/>
<text text-anchor="middle" x="212.55" y="-2280.34" font-family="Arial" font-size="9.00">Alternative carbon fixation pathways (C4 and CAM) enhance efficiency in specific environments.</text>
</g>
<!-- subtopic_4 -->
<g id="node27" class="node">
<title>subtopic_4</title>
<polygon fill="white" stroke="white" stroke-width="0" points="742.06,-1066.59 514.21,-1066.59 514.21,-1033.74 742.06,-1033.74 742.06,-1066.59"/>
<text text-anchor="middle" x="628.14" y="-1046.29" font-family="Arial-Bold" font-size="10.00">CARBON CONCENTRATING MECHANISMS</text>
</g>
<!-- subtopic_4_point_0 -->
<g id="node28" class="node">
<title>subtopic_4_point_0</title>
<polygon fill="white" stroke="white" stroke-width="0" points="394.41,-611.37 78.81,-611.37 78.81,-579.27 394.41,-579.27 394.41,-611.37"/>
<text text-anchor="middle" x="236.61" y="-592.02" font-family="Arial" font-size="9.00">C4 photosynthesis spatially separates CO2 fixation and the Calvin cycle.</text>
</g>
<!-- subtopic_4_point_1 -->
<g id="node29" class="node">
<title>subtopic_4_point_1</title>
<polygon fill="white" stroke="white" stroke-width="0" points="368.91,-819.67 104.31,-819.67 104.31,-787.57 368.91,-787.57 368.91,-819.67"/>
<text text-anchor="middle" x="236.61" y="-800.32" font-family="Arial" font-size="9.00">CAM photosynthesis temporally separates these processes.</text>
</g>
<!-- subtopic_4_point_2 -->
<g id="node30" class="node">
<title>subtopic_4_point_2</title>
<polygon fill="white" stroke="white" stroke-width="0" points="385.79,-1027.98 87.44,-1027.98 87.44,-995.88 385.79,-995.88 385.79,-1027.98"/>
<text text-anchor="middle" x="236.61" y="-1008.63" font-family="Arial" font-size="9.00">Carboxysomes in cyanobacteria concentrate CO2 around RuBisCO.</text>
</g>
<!-- subtopic_4_point_3 -->
<g id="node31" class="node">
<title>subtopic_4_point_3</title>
<polygon fill="white" stroke="white" stroke-width="0" points="339.29,-1236.29 133.94,-1236.29 133.94,-1204.19 339.29,-1204.19 339.29,-1236.29"/>
<text text-anchor="middle" x="236.61" y="-1216.94" font-family="Arial" font-size="9.00">Pyrenoids in algae perform a similar function.</text>
</g>
<!-- subtopic_5 -->
<g id="node32" class="node">
<title>subtopic_5</title>
<polygon fill="white" stroke="white" stroke-width="0" points="1246.86,-739.86 1022.01,-739.86 1022.01,-707.01 1246.86,-707.01 1246.86,-739.86"/>
<text text-anchor="middle" x="1134.44" y="-719.56" font-family="Arial-Bold" font-size="10.00">FACTORS AFFECTING PHOTOSYNTHESIS</text>
</g>
<!-- subtopic_5_point_0 -->
<g id="node33" class="node">
<title>subtopic_5_point_0</title>
<polygon fill="white" stroke="white" stroke-width="0" points="1157.13,-32.1 846.03,-32.1 846.03,0 1157.13,0 1157.13,-32.1"/>
<text text-anchor="middle" x="1001.58" y="-12.75" font-family="Arial" font-size="9.00">Light intensity, wavelength, and temperature affect photosynthetic rates.</text>
</g>
<!-- subtopic_5_point_1 -->
<g id="node34" class="node">
<title>subtopic_5_point_1</title>
<polygon fill="white" stroke="white" stroke-width="0" points="1169.88,-240.41 833.28,-240.41 833.28,-208.31 1169.88,-208.31 1169.88,-240.41"/>
<text text-anchor="middle" x="1001.58" y="-221.06" font-family="Arial" font-size="9.00">CO2 concentration influences the rate of carbon fixation and photorespiration.</text>
</g>
<!-- subtopic_5_point_2 -->
<g id="node35" class="node">
<title>subtopic_5_point_2</title>
<polygon fill="white" stroke="white" stroke-width="0" points="1197.63,-448.71 805.53,-448.71 805.53,-416.61 1197.63,-416.61 1197.63,-448.71"/>
<text text-anchor="middle" x="1001.58" y="-429.36" font-family="Arial" font-size="9.00">Water availability is crucial for maintaining turgor pressure and preventing stomatal closure.</text>
</g>
<!-- subtopic_5_point_3 -->
<g id="node36" class="node">
<title>subtopic_5_point_3</title>
<polygon fill="white" stroke="white" stroke-width="0" points="1148.44,-656.98 854.59,-656.98 854.59,-624.88 1148.44,-624.88 1148.44,-656.98"/>
<text text-anchor="middle" x="1001.52" y="-637.63" font-family="Arial" font-size="9.00">Nutrient availability impacts enzyme activity and pigment synthesis.</text>
</g>
<!-- subtopic_6 -->
<g id="node37" class="node">
<title>subtopic_6</title>
<polygon fill="white" stroke="white" stroke-width="0" points="1836.81,-932.51 1557.21,-932.51 1557.21,-899.66 1836.81,-899.66 1836.81,-932.51"/>
<text text-anchor="middle" x="1697.01" y="-912.21" font-family="Arial-Bold" font-size="10.00">EFFICIENCY AND EVOLUTION OF PHOTOSYNTHESIS</text>
</g>
<!-- subtopic_6_point_0 -->
<g id="node38" class="node">
<title>subtopic_6_point_0</title>
<polygon fill="white" stroke="white" stroke-width="0" points="2250.44,-280.47 1849.34,-280.47 1849.34,-248.37 2250.44,-248.37 2250.44,-280.47"/>
<text text-anchor="middle" x="2049.89" y="-261.12" font-family="Arial" font-size="9.00">Photosynthetic efficiency varies among organisms and is influenced by environmental factors.</text>
</g>
<!-- subtopic_6_point_1 -->
<g id="node39" class="node">
<title>subtopic_6_point_1</title>
<polygon fill="white" stroke="white" stroke-width="0" points="2221.19,-488.78 1878.59,-488.78 1878.59,-456.68 2221.19,-456.68 2221.19,-488.78"/>
<text text-anchor="middle" x="2049.89" y="-469.43" font-family="Arial" font-size="9.00">Early photosynthetic organisms likely used different electron donors than water.</text>
</g>
<!-- subtopic_6_point_2 -->
<g id="node40" class="node">
<title>subtopic_6_point_2</title>
<polygon fill="white" stroke="white" stroke-width="0" points="2223.82,-697.09 1875.97,-697.09 1875.97,-664.99 2223.82,-664.99 2223.82,-697.09"/>
<text text-anchor="middle" x="2049.89" y="-677.74" font-family="Arial" font-size="9.00">The endosymbiotic theory explains the origin of chloroplasts from cyanobacteria.</text>
</g>
<!-- subtopic_6_point_3 -->
<g id="node41" class="node">
<title>subtopic_6_point_3</title>
<polygon fill="white" stroke="white" stroke-width="0" points="2228.99,-904.77 1887.14,-904.77 1887.14,-872.67 2228.99,-872.67 2228.99,-904.77"/>
<text text-anchor="middle" x="2058.07" y="-885.42" font-family="Arial" font-size="9.00">Diverse eukaryotic lineages have evolved various photosynthetic mechanisms.</text>
</g>
<!-- subtopic_6_point_4 -->
<g id="node42" class="node">
<title>subtopic_6_point_4</title>
<polygon fill="white" stroke="white" stroke-width="0" points="2199.44,-1113.7 1900.34,-1113.7 1900.34,-1081.6 2199.44,-1081.6 2199.44,-1113.7"/>
<text text-anchor="middle" x="2049.89" y="-1094.35" font-family="Arial" font-size="9.00">Cyanobacteria played a key role in oxygenating Earth&#39;s atmosphere.</text>
</g>
</g>
</svg>
