<?xml version="1.0" encoding="UTF-8" standalone="no"?>
<!DOCTYPE svg PUBLIC "-//W3C//DTD SVG 1.1//EN"
 "http://www.w3.org/Graphics/SVG/1.1/DTD/svg11.dtd">
<!-- Generated by graphviz version 12.2.1 (20241206.2353)
 -->
<!-- Title: G Pages: 1 -->
<svg width="3828pt" height="4500pt"
 viewBox="0.00 0.00 918.62 1080.00" xmlns="http://www.w3.org/2000/svg" xmlns:xlink="http://www.w3.org/1999/xlink">
<g id="graph0" class="graph" transform="scale(1.84892 1.84892) rotate(0) translate(144 2289.86)">
<title>G</title>
<polygon fill="white" stroke="none" points="-144,144 -144,-2289.86 1926.18,-2289.86 1926.18,144 -144,144"/>
<!-- root&#45;&gt;subtopic_0 -->
<g id="edge1" class="edge">
<title>root&#45;&gt;subtopic_0</title>
<path fill="none" stroke="black" stroke-width="0.5" d="M957.97,-1068.98C1051.7,-1124.55 1261.35,-1248.84 1336.67,-1293.49"/>
</g>
<!-- root&#45;&gt;subtopic_1 -->
<g id="edge6" class="edge">
<title>root&#45;&gt;subtopic_1</title>
<path fill="none" stroke="black" stroke-width="0.5" d="M899.4,-1068.95C860.25,-1156.52 738.99,-1427.78 707.92,-1497.28"/>
</g>
<!-- root&#45;&gt;subtopic_2 -->
<g id="edge12" class="edge">
<title>root&#45;&gt;subtopic_2</title>
<path fill="none" stroke="black" stroke-width="0.5" d="M864.25,-1014.09C768.29,-958.55 553.67,-834.33 476.56,-789.7"/>
</g>
<!-- root&#45;&gt;subtopic_3 -->
<g id="edge18" class="edge">
<title>root&#45;&gt;subtopic_3</title>
<path fill="none" stroke="black" stroke-width="0.5" d="M927.21,-1014.25C976.45,-927.85 1128.03,-661.93 1166.86,-593.81"/>
</g>
<!-- subtopic_0&#45;&gt;subtopic_0_point_0 -->
<g id="edge2" class="edge">
<title>subtopic_0&#45;&gt;subtopic_0_point_0</title>
<path fill="none" stroke="black" stroke-width="0.5" d="M1419.84,-1303.33C1440.49,-1300.91 1464.94,-1298.04 1489.65,-1295.13"/>
</g>
<!-- subtopic_0&#45;&gt;subtopic_0_point_1 -->
<g id="edge3" class="edge">
<title>subtopic_0&#45;&gt;subtopic_0_point_1</title>
<path fill="none" stroke="black" stroke-width="0.5" d="M1395.86,-1326.28C1444.38,-1351.5 1536.68,-1399.49 1584.76,-1424.48"/>
</g>
<!-- subtopic_0&#45;&gt;subtopic_0_point_2 -->
<g id="edge4" class="edge">
<title>subtopic_0&#45;&gt;subtopic_0_point_2</title>
<path fill="none" stroke="black" stroke-width="0.5" d="M1378.15,-1325.95C1422.09,-1376.94 1557.9,-1534.52 1601.79,-1585.43"/>
</g>
<!-- subtopic_0&#45;&gt;subtopic_0_point_3 -->
<g id="edge5" class="edge">
<title>subtopic_0&#45;&gt;subtopic_0_point_3</title>
<path fill="none" stroke="black" stroke-width="0.5" d="M1373.38,-1326.22C1412.71,-1397 1568,-1676.41 1606.79,-1746.21"/>
</g>
<!-- subtopic_1&#45;&gt;subtopic_1_point_0 -->
<g id="edge7" class="edge">
<title>subtopic_1&#45;&gt;subtopic_1_point_0</title>
<path fill="none" stroke="black" stroke-width="0.5" d="M611.59,-1499.1C594.83,-1496.36 577.46,-1493.53 561.16,-1490.87"/>
</g>
<!-- subtopic_1&#45;&gt;subtopic_1_point_1 -->
<g id="edge8" class="edge">
<title>subtopic_1&#45;&gt;subtopic_1_point_1</title>
<path fill="none" stroke="black" stroke-width="0.5" d="M681.49,-1529.84C650.85,-1555.81 591.12,-1606.42 560.75,-1632.16"/>
</g>
<!-- subtopic_1&#45;&gt;subtopic_1_point_2 -->
<g id="edge9" class="edge">
<title>subtopic_1&#45;&gt;subtopic_1_point_2</title>
<path fill="none" stroke="black" stroke-width="0.5" d="M691.86,-1529.94C664.08,-1581.74 578.06,-1742.1 550.58,-1793.32"/>
</g>
<!-- subtopic_1&#45;&gt;subtopic_1_point_3 -->
<g id="edge10" class="edge">
<title>subtopic_1&#45;&gt;subtopic_1_point_3</title>
<path fill="none" stroke="black" stroke-width="0.5" d="M694.97,-1529.85C670.31,-1600.71 572.15,-1882.79 547.63,-1953.27"/>
</g>
<!-- subtopic_1&#45;&gt;subtopic_1_point_4 -->
<g id="edge11" class="edge">
<title>subtopic_1&#45;&gt;subtopic_1_point_4</title>
<path fill="none" stroke="black" stroke-width="0.5" d="M696.45,-1529.79C674.1,-1616.66 568.41,-2027.36 546.17,-2113.81"/>
</g>
<!-- subtopic_2&#45;&gt;subtopic_2_point_0 -->
<g id="edge13" class="edge">
<title>subtopic_2&#45;&gt;subtopic_2_point_0</title>
<path fill="none" stroke="black" stroke-width="0.5" d="M436.55,-757.02C388.04,-689.62 203.61,-433.34 155.47,-366.46"/>
</g>
<!-- subtopic_2&#45;&gt;subtopic_2_point_1 -->
<g id="edge14" class="edge">
<title>subtopic_2&#45;&gt;subtopic_2_point_1</title>
<path fill="none" stroke="black" stroke-width="0.5" d="M429.25,-756.93C374.33,-709.58 216.11,-573.16 162.18,-526.67"/>
</g>
<!-- subtopic_2&#45;&gt;subtopic_2_point_2 -->
<g id="edge15" class="edge">
<title>subtopic_2&#45;&gt;subtopic_2_point_2</title>
<path fill="none" stroke="black" stroke-width="0.5" d="M399.39,-756.97C342.26,-737.84 248.35,-706.4 191.7,-687.44"/>
</g>
<!-- subtopic_2&#45;&gt;subtopic_2_point_3 -->
<g id="edge16" class="edge">
<title>subtopic_2&#45;&gt;subtopic_2_point_3</title>
<path fill="none" stroke="black" stroke-width="0.5" d="M378.46,-786.79C333.45,-795.46 274.67,-806.78 227.22,-815.92"/>
</g>
<!-- subtopic_2&#45;&gt;subtopic_2_point_4 -->
<g id="edge17" class="edge">
<title>subtopic_2&#45;&gt;subtopic_2_point_4</title>
<path fill="none" stroke="black" stroke-width="0.5" d="M425.91,-789.44C369.49,-830.03 221.94,-936.16 165.93,-976.45"/>
</g>
<!-- subtopic_3&#45;&gt;subtopic_3_point_0 -->
<g id="edge19" class="edge">
<title>subtopic_3&#45;&gt;subtopic_3_point_0</title>
<path fill="none" stroke="black" stroke-width="0.5" d="M1182.22,-561.58C1213.62,-479.82 1354.37,-113.34 1385.59,-32.05"/>
</g>
<!-- subtopic_3&#45;&gt;subtopic_3_point_1 -->
<g id="edge20" class="edge">
<title>subtopic_3&#45;&gt;subtopic_3_point_1</title>
<path fill="none" stroke="black" stroke-width="0.5" d="M1184.72,-561.56C1219.56,-496.76 1348.52,-256.93 1383.14,-192.56"/>
</g>
<!-- subtopic_3&#45;&gt;subtopic_3_point_2 -->
<g id="edge21" class="edge">
<title>subtopic_3&#45;&gt;subtopic_3_point_2</title>
<path fill="none" stroke="black" stroke-width="0.5" d="M1190.48,-561.58C1229.88,-517.53 1338.6,-395.97 1377.59,-352.38"/>
</g>
<!-- subtopic_3&#45;&gt;subtopic_3_point_3 -->
<g id="edge22" class="edge">
<title>subtopic_3&#45;&gt;subtopic_3_point_3</title>
<path fill="none" stroke="black" stroke-width="0.5" d="M1219.54,-561.39C1258.22,-546.82 1314.41,-525.66 1352.72,-511.23"/>
</g>
<!-- subtopic_3&#45;&gt;subtopic_3_point_4 -->
<g id="edge23" class="edge">
<title>subtopic_3&#45;&gt;subtopic_3_point_4</title>
<path fill="none" stroke="black" stroke-width="0.5" d="M1219.45,-594.18C1258.05,-608.75 1314.12,-629.91 1352.35,-644.34"/>
</g>
<!-- root -->
<g id="node1" class="node">
<title>root</title>
<path fill="white" stroke="white" stroke-width="0.5" d="M1043.66,-1069.13C1043.66,-1069.13 779.66,-1069.13 779.66,-1069.13 773.66,-1069.13 767.66,-1063.13 767.66,-1057.13 767.66,-1057.13 767.66,-1025.93 767.66,-1025.93 767.66,-1019.93 773.66,-1013.93 779.66,-1013.93 779.66,-1013.93 1043.66,-1013.93 1043.66,-1013.93 1049.66,-1013.93 1055.66,-1019.93 1055.66,-1025.93 1055.66,-1025.93 1055.66,-1057.13 1055.66,-1057.13 1055.66,-1063.13 1049.66,-1069.13 1043.66,-1069.13"/>
<text text-anchor="middle" x="911.66" y="-1037.08" font-family="Arial-Bold" font-size="11.00">LIGHT: NATURE AND APPLICATIONS</text>
</g>
<!-- subtopic_0 -->
<g id="node2" class="node">
<title>subtopic_0</title>
<polygon fill="white" stroke="white" stroke-width="0" points="1420.08,-1326.29 1308.48,-1326.29 1308.48,-1293.44 1420.08,-1293.44 1420.08,-1326.29"/>
<text text-anchor="middle" x="1364.28" y="-1305.99" font-family="Arial-Bold" font-size="10.00">NATURE OF LIGHT</text>
</g>
<!-- subtopic_0_point_0 -->
<g id="node3" class="node">
<title>subtopic_0_point_0</title>
<polygon fill="white" stroke="white" stroke-width="0" points="1782.18,-1295.14 1470.33,-1295.14 1470.33,-1263.04 1782.18,-1263.04 1782.18,-1295.14"/>
<text text-anchor="middle" x="1626.26" y="-1275.79" font-family="Arial" font-size="9.00">Wave properties: wavelength, frequency, speed, interference, diffraction</text>
</g>
<!-- subtopic_0_point_1 -->
<g id="node4" class="node">
<title>subtopic_0_point_1</title>
<polygon fill="white" stroke="white" stroke-width="0" points="1765.54,-1456.57 1465.69,-1456.57 1465.69,-1424.47 1765.54,-1424.47 1765.54,-1456.57"/>
<text text-anchor="middle" x="1615.61" y="-1437.22" font-family="Arial" font-size="9.00">Particle properties: photons, energy quantization, photoelectric effect</text>
</g>
<!-- subtopic_0_point_2 -->
<g id="node5" class="node">
<title>subtopic_0_point_2</title>
<polygon fill="white" stroke="white" stroke-width="0" points="1765.54,-1617.53 1465.69,-1617.53 1465.69,-1585.43 1765.54,-1585.43 1765.54,-1617.53"/>
<text text-anchor="middle" x="1615.61" y="-1598.18" font-family="Arial" font-size="9.00">Electromagnetic spectrum: different types of light and their properties</text>
</g>
<!-- subtopic_0_point_3 -->
<g id="node6" class="node">
<title>subtopic_0_point_3</title>
<polygon fill="white" stroke="white" stroke-width="0" points="1709.29,-1778.13 1521.94,-1778.13 1521.94,-1746.03 1709.29,-1746.03 1709.29,-1778.13"/>
<text text-anchor="middle" x="1615.61" y="-1758.78" font-family="Arial" font-size="9.00">Wave&#45;particle duality and its implications</text>
</g>
<!-- subtopic_1 -->
<g id="node7" class="node">
<title>subtopic_1</title>
<polygon fill="white" stroke="white" stroke-width="0" points="789.79,-1530.05 611.44,-1530.05 611.44,-1497.2 789.79,-1497.2 789.79,-1530.05"/>
<text text-anchor="middle" x="700.61" y="-1509.75" font-family="Arial-Bold" font-size="10.00">REFLECTION AND REFRACTION</text>
</g>
<!-- subtopic_1_point_0 -->
<g id="node8" class="node">
<title>subtopic_1_point_0</title>
<polygon fill="white" stroke="white" stroke-width="0" points="561.23,-1494.58 409.88,-1494.58 409.88,-1462.48 561.23,-1462.48 561.23,-1494.58"/>
<text text-anchor="middle" x="485.56" y="-1475.23" font-family="Arial" font-size="9.00">Laws of reflection and refraction</text>
</g>
<!-- subtopic_1_point_1 -->
<g id="node9" class="node">
<title>subtopic_1_point_1</title>
<polygon fill="white" stroke="white" stroke-width="0" points="574.6,-1664.06 509.5,-1664.06 509.5,-1631.96 574.6,-1631.96 574.6,-1664.06"/>
<text text-anchor="middle" x="542.05" y="-1644.71" font-family="Arial" font-size="9.00">Snell&#39;s law</text>
</g>
<!-- subtopic_1_point_2 -->
<g id="node10" class="node">
<title>subtopic_1_point_2</title>
<polygon fill="white" stroke="white" stroke-width="0" points="679.23,-1825.27 404.88,-1825.27 404.88,-1793.17 679.23,-1793.17 679.23,-1825.27"/>
<text text-anchor="middle" x="542.05" y="-1805.92" font-family="Arial" font-size="9.00">Total internal reflection and its applications (e.g., optical fibers)</text>
</g>
<!-- subtopic_1_point_3 -->
<g id="node11" class="node">
<title>subtopic_1_point_3</title>
<polygon fill="white" stroke="white" stroke-width="0" points="625.98,-1985.35 458.13,-1985.35 458.13,-1953.25 625.98,-1953.25 625.98,-1985.35"/>
<text text-anchor="middle" x="542.05" y="-1966" font-family="Arial" font-size="9.00">Refractive index and its significance</text>
</g>
<!-- subtopic_1_point_4 -->
<g id="node12" class="node">
<title>subtopic_1_point_4</title>
<polygon fill="white" stroke="white" stroke-width="0" points="612.85,-2145.86 471.25,-2145.86 471.25,-2113.76 612.85,-2113.76 612.85,-2145.86"/>
<text text-anchor="middle" x="542.05" y="-2126.51" font-family="Arial" font-size="9.00">Lenses and their applications</text>
</g>
<!-- subtopic_2 -->
<g id="node13" class="node">
<title>subtopic_2</title>
<polygon fill="white" stroke="white" stroke-width="0" points="518.34,-789.77 378.24,-789.77 378.24,-756.92 518.34,-756.92 518.34,-789.77"/>
<text text-anchor="middle" x="448.29" y="-769.47" font-family="Arial-Bold" font-size="10.00">OPTICAL INSTRUMENTS</text>
</g>
<!-- subtopic_2_point_0 -->
<g id="node14" class="node">
<title>subtopic_2_point_0</title>
<polygon fill="white" stroke="white" stroke-width="0" points="224.48,-366.46 63.38,-366.46 63.38,-334.36 224.48,-334.36 224.48,-366.46"/>
<text text-anchor="middle" x="143.93" y="-347.11" font-family="Arial" font-size="9.00">Human eye: structure and function</text>
</g>
<!-- subtopic_2_point_1 -->
<g id="node15" class="node">
<title>subtopic_2_point_1</title>
<polygon fill="white" stroke="white" stroke-width="0" points="287.85,-526.98 0,-526.98 0,-494.88 287.85,-494.88 287.85,-526.98"/>
<text text-anchor="middle" x="143.93" y="-507.63" font-family="Arial" font-size="9.00">Simple and compound microscopes: magnification and resolution</text>
</g>
<!-- subtopic_2_point_2 -->
<g id="node16" class="node">
<title>subtopic_2_point_2</title>
<polygon fill="white" stroke="white" stroke-width="0" points="235.73,-687.49 52.13,-687.49 52.13,-655.39 235.73,-655.39 235.73,-687.49"/>
<text text-anchor="middle" x="143.93" y="-668.14" font-family="Arial" font-size="9.00">Telescopes: astronomical and terrestrial</text>
</g>
<!-- subtopic_2_point_3 -->
<g id="node17" class="node">
<title>subtopic_2_point_3</title>
<polygon fill="white" stroke="white" stroke-width="0" points="244.73,-848 43.13,-848 43.13,-815.9 244.73,-815.9 244.73,-848"/>
<text text-anchor="middle" x="143.93" y="-828.65" font-family="Arial" font-size="9.00">Cameras: image formation and photography</text>
</g>
<!-- subtopic_2_point_4 -->
<g id="node18" class="node">
<title>subtopic_2_point_4</title>
<polygon fill="white" stroke="white" stroke-width="0" points="232.35,-1008.33 55.5,-1008.33 55.5,-976.23 232.35,-976.23 232.35,-1008.33"/>
<text text-anchor="middle" x="143.93" y="-988.98" font-family="Arial" font-size="9.00">Spectrometers: analyzing light spectra</text>
</g>
<!-- subtopic_3 -->
<g id="node19" class="node">
<title>subtopic_3</title>
<polygon fill="white" stroke="white" stroke-width="0" points="1247.54,-594.21 1104.44,-594.21 1104.44,-561.36 1247.54,-561.36 1247.54,-594.21"/>
<text text-anchor="middle" x="1175.99" y="-573.91" font-family="Arial-Bold" font-size="10.00">APPLICATIONS OF LIGHT</text>
</g>
<!-- subtopic_3_point_0 -->
<g id="node20" class="node">
<title>subtopic_3_point_0</title>
<polygon fill="white" stroke="white" stroke-width="0" points="1545.78,-32.1 1237.68,-32.1 1237.68,0 1545.78,0 1545.78,-32.1"/>
<text text-anchor="middle" x="1391.73" y="-12.75" font-family="Arial" font-size="9.00">Lasers and their applications (e.g., medicine, communication, industry)</text>
</g>
<!-- subtopic_3_point_1 -->
<g id="node21" class="node">
<title>subtopic_3_point_1</title>
<polygon fill="white" stroke="white" stroke-width="0" points="1467.03,-192.62 1316.43,-192.62 1316.43,-160.52 1467.03,-160.52 1467.03,-192.62"/>
<text text-anchor="middle" x="1391.73" y="-173.27" font-family="Arial" font-size="9.00">Holography and its applications</text>
</g>
<!-- subtopic_3_point_2 -->
<g id="node22" class="node">
<title>subtopic_3_point_2</title>
<polygon fill="white" stroke="white" stroke-width="0" points="1532.66,-352.62 1250.81,-352.62 1250.81,-320.52 1532.66,-320.52 1532.66,-352.62"/>
<text text-anchor="middle" x="1391.73" y="-333.27" font-family="Arial" font-size="9.00">Fiber optics and its applications in communication and medicine</text>
</g>
<!-- subtopic_3_point_3 -->
<g id="node23" class="node">
<title>subtopic_3_point_3</title>
<polygon fill="white" stroke="white" stroke-width="0" points="1506.74,-511.34 1283.39,-511.34 1283.39,-479.24 1506.74,-479.24 1506.74,-511.34"/>
<text text-anchor="middle" x="1395.06" y="-491.99" font-family="Arial" font-size="9.00">Light in medical imaging (e.g., X&#45;rays, ultrasound)</text>
</g>
<!-- subtopic_3_point_4 -->
<g id="node24" class="node">
<title>subtopic_3_point_4</title>
<polygon fill="white" stroke="white" stroke-width="0" points="1524.28,-676.33 1264.93,-676.33 1264.93,-644.23 1524.28,-644.23 1524.28,-676.33"/>
<text text-anchor="middle" x="1394.61" y="-656.98" font-family="Arial" font-size="9.00">Light in scientific research (e.g., spectroscopy, microscopy)</text>
</g>
</g>
</svg>
