<?xml version="1.0" encoding="UTF-8" standalone="no"?>
<!DOCTYPE svg PUBLIC "-//W3C//DTD SVG 1.1//EN"
 "http://www.w3.org/Graphics/SVG/1.1/DTD/svg11.dtd">
<!-- Generated by graphviz version 12.2.1 (20241206.2353)
 -->
<!-- Title: G Pages: 1 -->
<svg width="3981pt" height="4500pt"
 viewBox="0.00 0.00 955.43 1080.00" xmlns="http://www.w3.org/2000/svg" xmlns:xlink="http://www.w3.org/1999/xlink">
<g id="graph0" class="graph" transform="scale(1.81171 1.81171) rotate(0) translate(144 2339.84)">
<title>G</title>
<polygon fill="white" stroke="none" points="-144,144 -144,-2339.84 2053.35,-2339.84 2053.35,144 -144,144"/>
<!-- root&#45;&gt;subtopic_0 -->
<g id="edge1" class="edge">
<title>root&#45;&gt;subtopic_0</title>
<path fill="none" stroke="black" stroke-width="0.5" d="M1061.33,-1076.45C1159.77,-1134.08 1384.75,-1265.79 1463.64,-1311.98"/>
</g>
<!-- root&#45;&gt;subtopic_1 -->
<g id="edge6" class="edge">
<title>root&#45;&gt;subtopic_1</title>
<path fill="none" stroke="black" stroke-width="0.5" d="M1008.43,-1076.31C987.74,-1173.63 918.22,-1500.73 901.81,-1577.9"/>
</g>
<!-- root&#45;&gt;subtopic_2 -->
<g id="edge11" class="edge">
<title>root&#45;&gt;subtopic_2</title>
<path fill="none" stroke="black" stroke-width="0.5" d="M870.36,-1064.01C774.09,-1074.13 649.65,-1087.21 563.1,-1096.31"/>
</g>
<!-- root&#45;&gt;subtopic_3 -->
<g id="edge16" class="edge">
<title>root&#45;&gt;subtopic_3</title>
<path fill="none" stroke="black" stroke-width="0.5" d="M1002.06,-1021.5C960.84,-928.92 827.45,-629.31 794.75,-555.86"/>
</g>
<!-- root&#45;&gt;subtopic_4 -->
<g id="edge21" class="edge">
<title>root&#45;&gt;subtopic_4</title>
<path fill="none" stroke="black" stroke-width="0.5" d="M1044.73,-1021.45C1126.03,-948.25 1346.31,-749.91 1410.72,-691.91"/>
</g>
<!-- subtopic_0&#45;&gt;subtopic_0_point_0 -->
<g id="edge2" class="edge">
<title>subtopic_0&#45;&gt;subtopic_0_point_0</title>
<path fill="none" stroke="black" stroke-width="0.5" d="M1547.12,-1321.83C1567.69,-1319.42 1592.02,-1316.57 1616.63,-1313.68"/>
</g>
<!-- subtopic_0&#45;&gt;subtopic_0_point_1 -->
<g id="edge3" class="edge">
<title>subtopic_0&#45;&gt;subtopic_0_point_1</title>
<path fill="none" stroke="black" stroke-width="0.5" d="M1522.26,-1344.76C1571.82,-1371.3 1668.92,-1423.28 1717.99,-1449.56"/>
</g>
<!-- subtopic_0&#45;&gt;subtopic_0_point_2 -->
<g id="edge4" class="edge">
<title>subtopic_0&#45;&gt;subtopic_0_point_2</title>
<path fill="none" stroke="black" stroke-width="0.5" d="M1505.37,-1344.72C1550.08,-1397.84 1690.75,-1564.96 1734.67,-1617.13"/>
</g>
<!-- subtopic_0&#45;&gt;subtopic_0_point_3 -->
<g id="edge5" class="edge">
<title>subtopic_0&#45;&gt;subtopic_0_point_3</title>
<path fill="none" stroke="black" stroke-width="0.5" d="M1500.42,-1344.59C1539.94,-1417.34 1700.47,-1712.83 1739.37,-1784.44"/>
</g>
<!-- subtopic_1&#45;&gt;subtopic_1_point_0 -->
<g id="edge7" class="edge">
<title>subtopic_1&#45;&gt;subtopic_1_point_0</title>
<path fill="none" stroke="black" stroke-width="0.5" d="M897.72,-1610.44C897.15,-1625.34 896.32,-1647.35 895.76,-1662.15"/>
</g>
<!-- subtopic_1&#45;&gt;subtopic_1_point_1 -->
<g id="edge8" class="edge">
<title>subtopic_1&#45;&gt;subtopic_1_point_1</title>
<path fill="none" stroke="black" stroke-width="0.5" d="M898.12,-1610.39C897.55,-1655.71 895.94,-1784.13 895.37,-1829.28"/>
</g>
<!-- subtopic_1&#45;&gt;subtopic_1_point_2 -->
<g id="edge9" class="edge">
<title>subtopic_1&#45;&gt;subtopic_1_point_2</title>
<path fill="none" stroke="black" stroke-width="0.5" d="M898.2,-1610.71C897.69,-1677.76 895.78,-1930.68 895.29,-1996.68"/>
</g>
<!-- subtopic_1&#45;&gt;subtopic_1_point_3 -->
<g id="edge10" class="edge">
<title>subtopic_1&#45;&gt;subtopic_1_point_3</title>
<path fill="none" stroke="black" stroke-width="0.5" d="M898.24,-1610.58C897.78,-1694.8 895.7,-2080.51 895.25,-2163.87"/>
</g>
<!-- subtopic_2&#45;&gt;subtopic_2_point_0 -->
<g id="edge12" class="edge">
<title>subtopic_2&#45;&gt;subtopic_2_point_0</title>
<path fill="none" stroke="black" stroke-width="0.5" d="M424.94,-1090.78C363.23,-1061.67 235.29,-1001.32 174.31,-972.55"/>
</g>
<!-- subtopic_2&#45;&gt;subtopic_2_point_1 -->
<g id="edge13" class="edge">
<title>subtopic_2&#45;&gt;subtopic_2_point_1</title>
<path fill="none" stroke="black" stroke-width="0.5" d="M356.52,-1112.59C306.62,-1115.2 248.28,-1118.26 204.82,-1120.54"/>
</g>
<!-- subtopic_2&#45;&gt;subtopic_2_point_2 -->
<g id="edge14" class="edge">
<title>subtopic_2&#45;&gt;subtopic_2_point_2</title>
<path fill="none" stroke="black" stroke-width="0.5" d="M431.38,-1123.51C370.66,-1158.52 228.6,-1240.43 168.35,-1275.16"/>
</g>
<!-- subtopic_2&#45;&gt;subtopic_2_point_3 -->
<g id="edge15" class="edge">
<title>subtopic_2&#45;&gt;subtopic_2_point_3</title>
<path fill="none" stroke="black" stroke-width="0.5" d="M445.16,-1123.18C391.87,-1181.84 207.64,-1384.63 154.81,-1442.78"/>
</g>
<!-- subtopic_3&#45;&gt;subtopic_3_point_0 -->
<g id="edge17" class="edge">
<title>subtopic_3&#45;&gt;subtopic_3_point_0</title>
<path fill="none" stroke="black" stroke-width="0.5" d="M781.44,-523.25C752.48,-445.17 627.81,-108.94 599.22,-31.84"/>
</g>
<!-- subtopic_3&#45;&gt;subtopic_3_point_1 -->
<g id="edge18" class="edge">
<title>subtopic_3&#45;&gt;subtopic_3_point_1</title>
<path fill="none" stroke="black" stroke-width="0.5" d="M778.61,-523.26C746.21,-463.79 634.17,-258.2 602.04,-199.25"/>
</g>
<!-- subtopic_3&#45;&gt;subtopic_3_point_2 -->
<g id="edge19" class="edge">
<title>subtopic_3&#45;&gt;subtopic_3_point_2</title>
<path fill="none" stroke="black" stroke-width="0.5" d="M770.91,-523.39C734.15,-487.61 646.07,-401.9 609.6,-366.41"/>
</g>
<!-- subtopic_3&#45;&gt;subtopic_3_point_3 -->
<g id="edge20" class="edge">
<title>subtopic_3&#45;&gt;subtopic_3_point_3</title>
<path fill="none" stroke="black" stroke-width="0.5" d="M721.75,-532.18C703.05,-530.1 682.62,-527.83 663.66,-525.72"/>
</g>
<!-- subtopic_4&#45;&gt;subtopic_4_point_0 -->
<g id="edge22" class="edge">
<title>subtopic_4&#45;&gt;subtopic_4_point_0</title>
<path fill="none" stroke="black" stroke-width="0.5" d="M1439.76,-659.53C1485.68,-592.45 1660.29,-337.38 1705.86,-270.81"/>
</g>
<!-- subtopic_4&#45;&gt;subtopic_4_point_1 -->
<g id="edge23" class="edge">
<title>subtopic_4&#45;&gt;subtopic_4_point_1</title>
<path fill="none" stroke="black" stroke-width="0.5" d="M1447.11,-659.52C1499.28,-613.6 1647.33,-483.27 1698.85,-437.92"/>
</g>
<!-- subtopic_4&#45;&gt;subtopic_4_point_2 -->
<g id="edge24" class="edge">
<title>subtopic_4&#45;&gt;subtopic_4_point_2</title>
<path fill="none" stroke="black" stroke-width="0.5" d="M1483.18,-659.43C1534.9,-643.93 1612.13,-620.78 1663.45,-605.4"/>
</g>
<!-- subtopic_4&#45;&gt;subtopic_4_point_3 -->
<g id="edge25" class="edge">
<title>subtopic_4&#45;&gt;subtopic_4_point_3</title>
<path fill="none" stroke="black" stroke-width="0.5" d="M1486.95,-692.15C1537.44,-706.33 1610.02,-726.71 1660.04,-740.75"/>
</g>
<!-- root -->
<g id="node1" class="node">
<title>root</title>
<path fill="white" stroke="white" stroke-width="0.5" d="M1146.26,-1076.49C1146.26,-1076.49 882.26,-1076.49 882.26,-1076.49 876.26,-1076.49 870.26,-1070.49 870.26,-1064.49 870.26,-1064.49 870.26,-1033.29 870.26,-1033.29 870.26,-1027.29 876.26,-1021.29 882.26,-1021.29 882.26,-1021.29 1146.26,-1021.29 1146.26,-1021.29 1152.26,-1021.29 1158.26,-1027.29 1158.26,-1033.29 1158.26,-1033.29 1158.26,-1064.49 1158.26,-1064.49 1158.26,-1070.49 1152.26,-1076.49 1146.26,-1076.49"/>
<text text-anchor="middle" x="1014.26" y="-1044.44" font-family="Arial-Bold" font-size="11.00">LIGHT: NATURE AND APPLICATIONS</text>
</g>
<!-- subtopic_0 -->
<g id="node2" class="node">
<title>subtopic_0</title>
<polygon fill="white" stroke="white" stroke-width="0" points="1547.39,-1344.77 1435.79,-1344.77 1435.79,-1311.92 1547.39,-1311.92 1547.39,-1344.77"/>
<text text-anchor="middle" x="1491.59" y="-1324.47" font-family="Arial-Bold" font-size="10.00">NATURE OF LIGHT</text>
</g>
<!-- subtopic_0_point_0 -->
<g id="node3" class="node">
<title>subtopic_0_point_0</title>
<polygon fill="white" stroke="white" stroke-width="0" points="1909.35,-1313.68 1597.5,-1313.68 1597.5,-1281.58 1909.35,-1281.58 1909.35,-1313.68"/>
<text text-anchor="middle" x="1753.43" y="-1294.33" font-family="Arial" font-size="9.00">Wave properties: wavelength, frequency, speed, interference, diffraction</text>
</g>
<!-- subtopic_0_point_1 -->
<g id="node4" class="node">
<title>subtopic_0_point_1</title>
<polygon fill="white" stroke="white" stroke-width="0" points="1897.82,-1481.61 1597.97,-1481.61 1597.97,-1449.51 1897.82,-1449.51 1897.82,-1481.61"/>
<text text-anchor="middle" x="1747.9" y="-1462.26" font-family="Arial" font-size="9.00">Particle properties: photons, energy quantization, photoelectric effect</text>
</g>
<!-- subtopic_0_point_2 -->
<g id="node5" class="node">
<title>subtopic_0_point_2</title>
<polygon fill="white" stroke="white" stroke-width="0" points="1897.82,-1648.9 1597.97,-1648.9 1597.97,-1616.8 1897.82,-1616.8 1897.82,-1648.9"/>
<text text-anchor="middle" x="1747.9" y="-1629.55" font-family="Arial" font-size="9.00">Electromagnetic spectrum: different types of light and their properties</text>
</g>
<!-- subtopic_0_point_3 -->
<g id="node6" class="node">
<title>subtopic_0_point_3</title>
<polygon fill="white" stroke="white" stroke-width="0" points="1841.57,-1816.18 1654.22,-1816.18 1654.22,-1784.08 1841.57,-1784.08 1841.57,-1816.18"/>
<text text-anchor="middle" x="1747.9" y="-1796.83" font-family="Arial" font-size="9.00">Wave&#45;particle duality and its implications</text>
</g>
<!-- subtopic_1 -->
<g id="node7" class="node">
<title>subtopic_1</title>
<polygon fill="white" stroke="white" stroke-width="0" points="987.5,-1610.74 809.15,-1610.74 809.15,-1577.89 987.5,-1577.89 987.5,-1610.74"/>
<text text-anchor="middle" x="898.32" y="-1590.44" font-family="Arial-Bold" font-size="10.00">REFLECTION AND REFRACTION</text>
</g>
<!-- subtopic_1_point_0 -->
<g id="node8" class="node">
<title>subtopic_1_point_0</title>
<polygon fill="white" stroke="white" stroke-width="0" points="970.84,-1693.99 819.49,-1693.99 819.49,-1661.89 970.84,-1661.89 970.84,-1693.99"/>
<text text-anchor="middle" x="895.17" y="-1674.64" font-family="Arial" font-size="9.00">Laws of reflection and refraction</text>
</g>
<!-- subtopic_1_point_1 -->
<g id="node9" class="node">
<title>subtopic_1_point_1</title>
<polygon fill="white" stroke="white" stroke-width="0" points="968.22,-1861.27 822.12,-1861.27 822.12,-1829.17 968.22,-1829.17 968.22,-1861.27"/>
<text text-anchor="middle" x="895.17" y="-1841.92" font-family="Arial" font-size="9.00">Snell&#39;s law and its applications</text>
</g>
<!-- subtopic_1_point_2 -->
<g id="node10" class="node">
<title>subtopic_1_point_2</title>
<polygon fill="white" stroke="white" stroke-width="0" points="1032.34,-2028.56 757.99,-2028.56 757.99,-1996.46 1032.34,-1996.46 1032.34,-2028.56"/>
<text text-anchor="middle" x="895.17" y="-2009.21" font-family="Arial" font-size="9.00">Total internal reflection and its applications (e.g., optical fibers)</text>
</g>
<!-- subtopic_1_point_3 -->
<g id="node11" class="node">
<title>subtopic_1_point_3</title>
<polygon fill="white" stroke="white" stroke-width="0" points="979.09,-2195.84 811.24,-2195.84 811.24,-2163.74 979.09,-2163.74 979.09,-2195.84"/>
<text text-anchor="middle" x="895.17" y="-2176.49" font-family="Arial" font-size="9.00">Refractive index and its significance</text>
</g>
<!-- subtopic_2 -->
<g id="node12" class="node">
<title>subtopic_2</title>
<polygon fill="white" stroke="white" stroke-width="0" points="563.13,-1123.6 356.28,-1123.6 356.28,-1090.75 563.13,-1090.75 563.13,-1123.6"/>
<text text-anchor="middle" x="459.7" y="-1103.3" font-family="Arial-Bold" font-size="10.00">LENSES AND OPTICAL INSTRUMENTS</text>
</g>
<!-- subtopic_2_point_0 -->
<g id="node13" class="node">
<title>subtopic_2_point_0</title>
<polygon fill="white" stroke="white" stroke-width="0" points="239.48,-972.68 41.63,-972.68 41.63,-940.58 239.48,-940.58 239.48,-972.68"/>
<text text-anchor="middle" x="140.55" y="-953.33" font-family="Arial" font-size="9.00">Types of lenses (converging and diverging)</text>
</g>
<!-- subtopic_2_point_1 -->
<g id="node14" class="node">
<title>subtopic_2_point_1</title>
<polygon fill="white" stroke="white" stroke-width="0" points="204.98,-1139.96 76.13,-1139.96 76.13,-1107.86 204.98,-1107.86 204.98,-1139.96"/>
<text text-anchor="middle" x="140.55" y="-1120.61" font-family="Arial" font-size="9.00">Image formation by lenses</text>
</g>
<!-- subtopic_2_point_2 -->
<g id="node15" class="node">
<title>subtopic_2_point_2</title>
<polygon fill="white" stroke="white" stroke-width="0" points="215.48,-1307.25 65.63,-1307.25 65.63,-1275.15 215.48,-1275.15 215.48,-1307.25"/>
<text text-anchor="middle" x="140.55" y="-1287.9" font-family="Arial" font-size="9.00">Lens formula and magnification</text>
</g>
<!-- subtopic_2_point_3 -->
<g id="node16" class="node">
<title>subtopic_2_point_3</title>
<polygon fill="white" stroke="white" stroke-width="0" points="281.1,-1474.53 0,-1474.53 0,-1442.43 281.1,-1442.43 281.1,-1474.53"/>
<text text-anchor="middle" x="140.55" y="-1455.18" font-family="Arial" font-size="9.00">Applications of lenses in microscopes, telescopes, and cameras</text>
</g>
<!-- subtopic_3 -->
<g id="node17" class="node">
<title>subtopic_3</title>
<polygon fill="white" stroke="white" stroke-width="0" points="853.38,-555.91 721.53,-555.91 721.53,-523.06 853.38,-523.06 853.38,-555.91"/>
<text text-anchor="middle" x="787.46" y="-535.61" font-family="Arial-Bold" font-size="10.00">OPTICAL PHENOMENA</text>
</g>
<!-- subtopic_3_point_0 -->
<g id="node18" class="node">
<title>subtopic_3_point_0</title>
<polygon fill="white" stroke="white" stroke-width="0" points="669.79,-32.1 516.94,-32.1 516.94,0 669.79,0 669.79,-32.1"/>
<text text-anchor="middle" x="593.37" y="-12.75" font-family="Arial" font-size="9.00">Dispersion of light and rainbows</text>
</g>
<!-- subtopic_3_point_1 -->
<g id="node19" class="node">
<title>subtopic_3_point_1</title>
<polygon fill="white" stroke="white" stroke-width="0" points="683.67,-199.38 503.07,-199.38 503.07,-167.28 683.67,-167.28 683.67,-199.38"/>
<text text-anchor="middle" x="593.37" y="-180.03" font-family="Arial" font-size="9.00">Polarization of light and its applications</text>
</g>
<!-- subtopic_3_point_2 -->
<g id="node20" class="node">
<title>subtopic_3_point_2</title>
<polygon fill="white" stroke="white" stroke-width="0" points="720.42,-366.67 466.32,-366.67 466.32,-334.57 720.42,-334.57 720.42,-366.67"/>
<text text-anchor="middle" x="593.37" y="-347.32" font-family="Arial" font-size="9.00">Diffraction gratings and their applications in spectroscopy</text>
</g>
<!-- subtopic_3_point_3 -->
<g id="node21" class="node">
<title>subtopic_3_point_3</title>
<polygon fill="white" stroke="white" stroke-width="0" points="663.79,-533.95 522.94,-533.95 522.94,-501.85 663.79,-501.85 663.79,-533.95"/>
<text text-anchor="middle" x="593.37" y="-514.6" font-family="Arial" font-size="9.00">Holography and its principles</text>
</g>
<!-- subtopic_4 -->
<g id="node22" class="node">
<title>subtopic_4</title>
<polygon fill="white" stroke="white" stroke-width="0" points="1543.32,-692.2 1313.97,-692.2 1313.97,-659.35 1543.32,-659.35 1543.32,-692.2"/>
<text text-anchor="middle" x="1428.64" y="-671.9" font-family="Arial-Bold" font-size="10.00">APPLICATIONS OF LIGHT IN TECHNOLOGY</text>
</g>
<!-- subtopic_4_point_0 -->
<g id="node23" class="node">
<title>subtopic_4_point_0</title>
<polygon fill="white" stroke="white" stroke-width="0" points="1885.09,-270.89 1548.49,-270.89 1548.49,-238.79 1885.09,-238.79 1885.09,-270.89"/>
<text text-anchor="middle" x="1716.79" y="-251.54" font-family="Arial" font-size="9.00">Lasers and their applications in various fields (medicine, communication, etc.)</text>
</g>
<!-- subtopic_4_point_1 -->
<g id="node24" class="node">
<title>subtopic_4_point_1</title>
<polygon fill="white" stroke="white" stroke-width="0" points="1811.97,-438.17 1621.62,-438.17 1621.62,-406.07 1811.97,-406.07 1811.97,-438.17"/>
<text text-anchor="middle" x="1716.79" y="-418.82" font-family="Arial" font-size="9.00">Fiber optics and its role in communication</text>
</g>
<!-- subtopic_4_point_2 -->
<g id="node25" class="node">
<title>subtopic_4_point_2</title>
<polygon fill="white" stroke="white" stroke-width="0" points="1804.09,-605.46 1629.49,-605.46 1629.49,-573.36 1804.09,-573.36 1804.09,-605.46"/>
<text text-anchor="middle" x="1716.79" y="-586.11" font-family="Arial" font-size="9.00">Optical sensors and their applications</text>
</g>
<!-- subtopic_4_point_3 -->
<g id="node26" class="node">
<title>subtopic_4_point_3</title>
<polygon fill="white" stroke="white" stroke-width="0" points="1829.59,-772.74 1603.99,-772.74 1603.99,-740.64 1829.59,-740.64 1829.59,-772.74"/>
<text text-anchor="middle" x="1716.79" y="-753.39" font-family="Arial" font-size="9.00">Light emitting diodes (LEDs) and their advantages</text>
</g>
</g>
</svg>
