<?xml version="1.0" encoding="UTF-8" standalone="no"?>
<!DOCTYPE svg PUBLIC "-//W3C//DTD SVG 1.1//EN"
 "http://www.w3.org/Graphics/SVG/1.1/DTD/svg11.dtd">
<!-- Generated by graphviz version 12.2.1 (20241206.2353)
 -->
<!-- Title: G Pages: 1 -->
<svg width="3929pt" height="4500pt"
 viewBox="0.00 0.00 943.06 1080.00" xmlns="http://www.w3.org/2000/svg" xmlns:xlink="http://www.w3.org/1999/xlink">
<g id="graph0" class="graph" transform="scale(1.34538 1.34538) rotate(0) translate(144 3200.78)">
<title>G</title>
<polygon fill="white" stroke="none" points="-144,144 -144,-3200.78 2776.66,-3200.78 2776.66,144 -144,144"/>
<!-- root&#45;&gt;subtopic_0 -->
<g id="edge1" class="edge">
<title>root&#45;&gt;subtopic_0</title>
<path fill="none" stroke="black" stroke-width="0.5" d="M1456.05,-1321.08C1613.07,-1332.7 1861.68,-1351.1 2006.97,-1361.85"/>
</g>
<!-- root&#45;&gt;subtopic_1 -->
<g id="edge6" class="edge">
<title>root&#45;&gt;subtopic_1</title>
<path fill="none" stroke="black" stroke-width="0.5" d="M1332.26,-1338.05C1402.41,-1436.05 1638.36,-1765.7 1693.59,-1842.86"/>
</g>
<!-- root&#45;&gt;subtopic_2 -->
<g id="edge16" class="edge">
<title>root&#45;&gt;subtopic_2</title>
<path fill="none" stroke="black" stroke-width="0.5" d="M1305.76,-1338.01C1277.45,-1453.36 1168.89,-1895.76 1146.72,-1986.11"/>
</g>
<!-- root&#45;&gt;subtopic_3 -->
<g id="edge22" class="edge">
<title>root&#45;&gt;subtopic_3</title>
<path fill="none" stroke="black" stroke-width="0.5" d="M1280.54,-1337.85C1183.91,-1420.6 896.94,-1666.36 820.28,-1732.01"/>
</g>
<!-- root&#45;&gt;subtopic_4 -->
<g id="edge29" class="edge">
<title>root&#45;&gt;subtopic_4</title>
<path fill="none" stroke="black" stroke-width="0.5" d="M1168.75,-1295.32C1057.79,-1283.63 904.69,-1267.49 791.85,-1255.61"/>
</g>
<!-- root&#45;&gt;subtopic_5 -->
<g id="edge35" class="edge">
<title>root&#45;&gt;subtopic_5</title>
<path fill="none" stroke="black" stroke-width="0.5" d="M1290.98,-1283.06C1215.31,-1186.77 962.91,-865.61 902.89,-789.24"/>
</g>
<!-- root&#45;&gt;subtopic_6 -->
<g id="edge41" class="edge">
<title>root&#45;&gt;subtopic_6</title>
<path fill="none" stroke="black" stroke-width="0.5" d="M1315.88,-1282.97C1329.94,-1167.86 1383.87,-726.39 1394.89,-636.23"/>
</g>
<!-- root&#45;&gt;subtopic_7 -->
<g id="edge45" class="edge">
<title>root&#45;&gt;subtopic_7</title>
<path fill="none" stroke="black" stroke-width="0.5" d="M1346.66,-1282.96C1449.83,-1199.85 1756.23,-953.04 1838.08,-887.1"/>
</g>
<!-- subtopic_0&#45;&gt;subtopic_0_point_0 -->
<g id="edge2" class="edge">
<title>subtopic_0&#45;&gt;subtopic_0_point_0</title>
<path fill="none" stroke="black" stroke-width="0.5" d="M2150.19,-1354.11C2207.63,-1319.33 2341.39,-1238.35 2398.1,-1204.01"/>
</g>
<!-- subtopic_0&#45;&gt;subtopic_0_point_1 -->
<g id="edge3" class="edge">
<title>subtopic_0&#45;&gt;subtopic_0_point_1</title>
<path fill="none" stroke="black" stroke-width="0.5" d="M2239.58,-1378.4C2255.92,-1379.52 2272.98,-1380.69 2290.07,-1381.86"/>
</g>
<!-- subtopic_0&#45;&gt;subtopic_0_point_2 -->
<g id="edge4" class="edge">
<title>subtopic_0&#45;&gt;subtopic_0_point_2</title>
<path fill="none" stroke="black" stroke-width="0.5" d="M2144.15,-1386.71C2198.97,-1429.28 2346.18,-1543.58 2400.53,-1585.78"/>
</g>
<!-- subtopic_0&#45;&gt;subtopic_0_point_3 -->
<g id="edge5" class="edge">
<title>subtopic_0&#45;&gt;subtopic_0_point_3</title>
<path fill="none" stroke="black" stroke-width="0.5" d="M2134.11,-1386.83C2180.22,-1456.17 2358.98,-1724.98 2404.3,-1793.13"/>
</g>
<!-- subtopic_1&#45;&gt;subtopic_1_point_0 -->
<g id="edge7" class="edge">
<title>subtopic_1&#45;&gt;subtopic_1_point_0</title>
<path fill="none" stroke="black" stroke-width="0.5" d="M1707.9,-1842.74C1719.74,-1770.31 1767.34,-1479.11 1779.06,-1407.44"/>
</g>
<!-- subtopic_1&#45;&gt;subtopic_1_point_1 -->
<g id="edge8" class="edge">
<title>subtopic_1&#45;&gt;subtopic_1_point_1</title>
<path fill="none" stroke="black" stroke-width="0.5" d="M1719.7,-1842.89C1763.02,-1794.35 1891.3,-1650.59 1934.12,-1602.61"/>
</g>
<!-- subtopic_1&#45;&gt;subtopic_1_point_2 -->
<g id="edge9" class="edge">
<title>subtopic_1&#45;&gt;subtopic_1_point_2</title>
<path fill="none" stroke="black" stroke-width="0.5" d="M1770.83,-1842.78C1825.06,-1829.28 1901.64,-1810.21 1955.55,-1796.79"/>
</g>
<!-- subtopic_1&#45;&gt;subtopic_1_point_3 -->
<g id="edge10" class="edge">
<title>subtopic_1&#45;&gt;subtopic_1_point_3</title>
<path fill="none" stroke="black" stroke-width="0.5" d="M1734.56,-1875.52C1784.03,-1903.18 1883.4,-1958.75 1932.36,-1986.13"/>
</g>
<!-- subtopic_1&#45;&gt;subtopic_1_point_4 -->
<g id="edge11" class="edge">
<title>subtopic_1&#45;&gt;subtopic_1_point_4</title>
<path fill="none" stroke="black" stroke-width="0.5" d="M1716.81,-1875.17C1759.24,-1934.01 1905.93,-2137.44 1948,-2195.78"/>
</g>
<!-- subtopic_1&#45;&gt;subtopic_1_point_5 -->
<g id="edge12" class="edge">
<title>subtopic_1&#45;&gt;subtopic_1_point_5</title>
<path fill="none" stroke="black" stroke-width="0.5" d="M1712.55,-1875.26C1749.53,-1956.71 1915.26,-2321.81 1952.02,-2402.79"/>
</g>
<!-- subtopic_1&#45;&gt;subtopic_1_point_6 -->
<g id="edge13" class="edge">
<title>subtopic_1&#45;&gt;subtopic_1_point_6</title>
<path fill="none" stroke="black" stroke-width="0.5" d="M1710.65,-1875.48C1744.01,-1976.16 1921.08,-2510.53 1953.99,-2609.84"/>
</g>
<!-- subtopic_1&#45;&gt;subtopic_1_point_7 -->
<g id="edge14" class="edge">
<title>subtopic_1&#45;&gt;subtopic_1_point_7</title>
<path fill="none" stroke="black" stroke-width="0.5" d="M1709.42,-1875.21C1739.74,-1991.47 1924.92,-2701.59 1955.1,-2817.31"/>
</g>
<!-- subtopic_1&#45;&gt;subtopic_1_point_8 -->
<g id="edge15" class="edge">
<title>subtopic_1&#45;&gt;subtopic_1_point_8</title>
<path fill="none" stroke="black" stroke-width="0.5" d="M1708.72,-1875.36C1737,-2006.89 1928.04,-2895.54 1955.87,-3025.01"/>
</g>
<!-- subtopic_2&#45;&gt;subtopic_2_point_0 -->
<g id="edge17" class="edge">
<title>subtopic_2&#45;&gt;subtopic_2_point_0</title>
<path fill="none" stroke="black" stroke-width="0.5" d="M1250.74,-1996.86C1267.45,-1996.02 1284.75,-1995.15 1301.59,-1994.3"/>
</g>
<!-- subtopic_2&#45;&gt;subtopic_2_point_1 -->
<g id="edge18" class="edge">
<title>subtopic_2&#45;&gt;subtopic_2_point_1</title>
<path fill="none" stroke="black" stroke-width="0.5" d="M1155.7,-2018.66C1185.53,-2056.36 1258.77,-2148.93 1288.34,-2186.31"/>
</g>
<!-- subtopic_2&#45;&gt;subtopic_2_point_2 -->
<g id="edge19" class="edge">
<title>subtopic_2&#45;&gt;subtopic_2_point_2</title>
<path fill="none" stroke="black" stroke-width="0.5" d="M1149.02,-2018.5C1174.35,-2084.05 1268.98,-2328.96 1294.03,-2393.77"/>
</g>
<!-- subtopic_2&#45;&gt;subtopic_2_point_3 -->
<g id="edge20" class="edge">
<title>subtopic_2&#45;&gt;subtopic_2_point_3</title>
<path fill="none" stroke="black" stroke-width="0.5" d="M1146.88,-2018.41C1169.08,-2105.05 1274.01,-2514.69 1296.09,-2600.91"/>
</g>
<!-- subtopic_2&#45;&gt;subtopic_2_point_4 -->
<g id="edge21" class="edge">
<title>subtopic_2&#45;&gt;subtopic_2_point_4</title>
<path fill="none" stroke="black" stroke-width="0.5" d="M1145.9,-2018.71C1166.09,-2124.16 1277.34,-2705.05 1297.17,-2808.58"/>
</g>
<!-- subtopic_3&#45;&gt;subtopic_3_point_0 -->
<g id="edge23" class="edge">
<title>subtopic_3&#45;&gt;subtopic_3_point_0</title>
<path fill="none" stroke="black" stroke-width="0.5" d="M778.96,-1732.04C727.57,-1694.63 601.39,-1602.75 550.45,-1565.66"/>
</g>
<!-- subtopic_3&#45;&gt;subtopic_3_point_1 -->
<g id="edge24" class="edge">
<title>subtopic_3&#45;&gt;subtopic_3_point_1</title>
<path fill="none" stroke="black" stroke-width="0.5" d="M714.53,-1752.92C698.29,-1753.78 681.09,-1754.7 664.16,-1755.61"/>
</g>
<!-- subtopic_3&#45;&gt;subtopic_3_point_2 -->
<g id="edge25" class="edge">
<title>subtopic_3&#45;&gt;subtopic_3_point_2</title>
<path fill="none" stroke="black" stroke-width="0.5" d="M780.77,-1764.61C729.96,-1805.05 598.73,-1909.49 548.46,-1949.49"/>
</g>
<!-- subtopic_3&#45;&gt;subtopic_3_point_3 -->
<g id="edge26" class="edge">
<title>subtopic_3&#45;&gt;subtopic_3_point_3</title>
<path fill="none" stroke="black" stroke-width="0.5" d="M790.69,-1764.62C746.86,-1832.22 579.96,-2089.67 537.03,-2155.89"/>
</g>
<!-- subtopic_3&#45;&gt;subtopic_3_point_4 -->
<g id="edge27" class="edge">
<title>subtopic_3&#45;&gt;subtopic_3_point_4</title>
<path fill="none" stroke="black" stroke-width="0.5" d="M794.25,-1764.49C756.01,-1852.79 573.06,-2275.09 535.25,-2362.38"/>
</g>
<!-- subtopic_3&#45;&gt;subtopic_3_point_5 -->
<g id="edge28" class="edge">
<title>subtopic_3&#45;&gt;subtopic_3_point_5</title>
<path fill="none" stroke="black" stroke-width="0.5" d="M795.97,-1764.64C761.4,-1871.15 568.61,-2465.16 534.62,-2569.9"/>
</g>
<!-- subtopic_4&#45;&gt;subtopic_4_point_0 -->
<g id="edge30" class="edge">
<title>subtopic_4&#45;&gt;subtopic_4_point_0</title>
<path fill="none" stroke="black" stroke-width="0.5" d="M622.39,-1223.34C554.09,-1161.61 311.9,-942.73 244.23,-881.57"/>
</g>
<!-- subtopic_4&#45;&gt;subtopic_4_point_1 -->
<g id="edge31" class="edge">
<title>subtopic_4&#45;&gt;subtopic_4_point_1</title>
<path fill="none" stroke="black" stroke-width="0.5" d="M600,-1223.38C520.55,-1191.41 345.01,-1120.78 266.18,-1089.06"/>
</g>
<!-- subtopic_4&#45;&gt;subtopic_4_point_2 -->
<g id="edge32" class="edge">
<title>subtopic_4&#45;&gt;subtopic_4_point_2</title>
<path fill="none" stroke="black" stroke-width="0.5" d="M489.13,-1254.32C439.55,-1259.12 385.36,-1264.37 339.13,-1268.85"/>
</g>
<!-- subtopic_4&#45;&gt;subtopic_4_point_3 -->
<g id="edge33" class="edge">
<title>subtopic_4&#45;&gt;subtopic_4_point_3</title>
<path fill="none" stroke="black" stroke-width="0.5" d="M612.88,-1255.98C537.27,-1300.77 327.23,-1425.19 252.28,-1469.59"/>
</g>
<!-- subtopic_4&#45;&gt;subtopic_4_point_4 -->
<g id="edge34" class="edge">
<title>subtopic_4&#45;&gt;subtopic_4_point_4</title>
<path fill="none" stroke="black" stroke-width="0.5" d="M624.21,-1255.93C554.01,-1326.37 276.89,-1604.4 207.66,-1673.85"/>
</g>
<!-- subtopic_5&#45;&gt;subtopic_5_point_0 -->
<g id="edge36" class="edge">
<title>subtopic_5&#45;&gt;subtopic_5_point_0</title>
<path fill="none" stroke="black" stroke-width="0.5" d="M882.22,-756.42C838.09,-663.33 619.74,-202.7 576.26,-110.97"/>
</g>
<!-- subtopic_5&#45;&gt;subtopic_5_point_1 -->
<g id="edge37" class="edge">
<title>subtopic_5&#45;&gt;subtopic_5_point_1</title>
<path fill="none" stroke="black" stroke-width="0.5" d="M878.94,-756.65C829.4,-684.13 628.17,-389.6 579.4,-318.21"/>
</g>
<!-- subtopic_5&#45;&gt;subtopic_5_point_2 -->
<g id="edge38" class="edge">
<title>subtopic_5&#45;&gt;subtopic_5_point_2</title>
<path fill="none" stroke="black" stroke-width="0.5" d="M870.39,-756.8C812.89,-709.78 645.24,-572.66 588.07,-525.91"/>
</g>
<!-- subtopic_5&#45;&gt;subtopic_5_point_3 -->
<g id="edge39" class="edge">
<title>subtopic_5&#45;&gt;subtopic_5_point_3</title>
<path fill="none" stroke="black" stroke-width="0.5" d="M794.91,-756.48C752.53,-749.19 702.82,-740.64 660.8,-733.41"/>
</g>
<!-- subtopic_5&#45;&gt;subtopic_5_point_4 -->
<g id="edge40" class="edge">
<title>subtopic_5&#45;&gt;subtopic_5_point_4</title>
<path fill="none" stroke="black" stroke-width="0.5" d="M855.62,-789.13C793.62,-818.51 663.83,-880 602.36,-909.13"/>
</g>
<!-- subtopic_6&#45;&gt;subtopic_6_point_0 -->
<g id="edge42" class="edge">
<title>subtopic_6&#45;&gt;subtopic_6_point_0</title>
<path fill="none" stroke="black" stroke-width="0.5" d="M1400.14,-603.93C1417.55,-518.19 1498.98,-117.15 1516.27,-31.98"/>
</g>
<!-- subtopic_6&#45;&gt;subtopic_6_point_1 -->
<g id="edge43" class="edge">
<title>subtopic_6&#45;&gt;subtopic_6_point_1</title>
<path fill="none" stroke="black" stroke-width="0.5" d="M1401.82,-604.06C1421.63,-540.01 1494.94,-302.97 1514.62,-239.35"/>
</g>
<!-- subtopic_6&#45;&gt;subtopic_6_point_2 -->
<g id="edge44" class="edge">
<title>subtopic_6&#45;&gt;subtopic_6_point_2</title>
<path fill="none" stroke="black" stroke-width="0.5" d="M1407.32,-603.97C1430.54,-568.17 1486.2,-482.38 1509.25,-446.86"/>
</g>
<!-- subtopic_7&#45;&gt;subtopic_7_point_0 -->
<g id="edge46" class="edge">
<title>subtopic_7&#45;&gt;subtopic_7_point_0</title>
<path fill="none" stroke="black" stroke-width="0.5" d="M1873.42,-854.52C1933.49,-789.68 2155.85,-549.69 2215.53,-485.28"/>
</g>
<!-- subtopic_7&#45;&gt;subtopic_7_point_1 -->
<g id="edge47" class="edge">
<title>subtopic_7&#45;&gt;subtopic_7_point_1</title>
<path fill="none" stroke="black" stroke-width="0.5" d="M1889.77,-854.38C1960.18,-817.66 2129.98,-729.1 2199.69,-692.74"/>
</g>
<!-- subtopic_7&#45;&gt;subtopic_7_point_2 -->
<g id="edge48" class="edge">
<title>subtopic_7&#45;&gt;subtopic_7_point_2</title>
<path fill="none" stroke="black" stroke-width="0.5" d="M1972.15,-874.73C2011.01,-876.09 2054.94,-877.62 2095.64,-879.04"/>
</g>
<!-- root -->
<g id="node1" class="node">
<title>root</title>
<path fill="white" stroke="white" stroke-width="0.5" d="M1444.52,-1338.06C1444.52,-1338.06 1180.52,-1338.06 1180.52,-1338.06 1174.52,-1338.06 1168.52,-1332.06 1168.52,-1326.06 1168.52,-1326.06 1168.52,-1294.86 1168.52,-1294.86 1168.52,-1288.86 1174.52,-1282.86 1180.52,-1282.86 1180.52,-1282.86 1444.52,-1282.86 1444.52,-1282.86 1450.52,-1282.86 1456.52,-1288.86 1456.52,-1294.86 1456.52,-1294.86 1456.52,-1326.06 1456.52,-1326.06 1456.52,-1332.06 1450.52,-1338.06 1444.52,-1338.06"/>
<text text-anchor="middle" x="1312.52" y="-1306.01" font-family="Arial-Bold" font-size="11.00">CHEMICAL REACTIONS</text>
</g>
<!-- subtopic_0 -->
<g id="node2" class="node">
<title>subtopic_0</title>
<polygon fill="white" stroke="white" stroke-width="0" points="2239.76,-1386.87 2006.66,-1386.87 2006.66,-1354.02 2239.76,-1354.02 2239.76,-1386.87"/>
<text text-anchor="middle" x="2123.21" y="-1366.57" font-family="Arial-Bold" font-size="10.00">INTRODUCTION TO CHEMICAL REACTIONS</text>
</g>
<!-- subtopic_0_point_0 -->
<g id="node3" class="node">
<title>subtopic_0_point_0</title>
<polygon fill="white" stroke="white" stroke-width="0" points="2548.69,-1204.22 2299.84,-1204.22 2299.84,-1172.12 2548.69,-1172.12 2548.69,-1204.22"/>
<text text-anchor="middle" x="2424.27" y="-1184.87" font-family="Arial" font-size="9.00">Chemical reactions involve the rearrangement of atoms.</text>
</g>
<!-- subtopic_0_point_1 -->
<g id="node4" class="node">
<title>subtopic_0_point_1</title>
<polygon fill="white" stroke="white" stroke-width="0" points="2632.66,-1409.62 2290.06,-1409.62 2290.06,-1377.52 2632.66,-1377.52 2632.66,-1409.62"/>
<text text-anchor="middle" x="2461.36" y="-1390.27" font-family="Arial" font-size="9.00">Reactants are the starting materials, and products are the resulting substances.</text>
</g>
<!-- subtopic_0_point_2 -->
<g id="node5" class="node">
<title>subtopic_0_point_2</title>
<polygon fill="white" stroke="white" stroke-width="0" points="2588.98,-1617.77 2253.13,-1617.77 2253.13,-1585.67 2588.98,-1585.67 2588.98,-1617.77"/>
<text text-anchor="middle" x="2421.06" y="-1598.42" font-family="Arial" font-size="9.00">Reactions are accompanied by energy changes (exothermic or endothermic).</text>
</g>
<!-- subtopic_0_point_3 -->
<g id="node6" class="node">
<title>subtopic_0_point_3</title>
<polygon fill="white" stroke="white" stroke-width="0" points="2533.97,-1824.95 2295.62,-1824.95 2295.62,-1792.85 2533.97,-1792.85 2533.97,-1824.95"/>
<text text-anchor="middle" x="2414.79" y="-1805.6" font-family="Arial" font-size="9.00">Chemical equations represent reactions symbolically.</text>
</g>
<!-- subtopic_1 -->
<g id="node7" class="node">
<title>subtopic_1</title>
<polygon fill="white" stroke="white" stroke-width="0" points="1799.28,-1875.54 1611.18,-1875.54 1611.18,-1842.69 1799.28,-1842.69 1799.28,-1875.54"/>
<text text-anchor="middle" x="1705.23" y="-1855.24" font-family="Arial-Bold" font-size="10.00">TYPES OF CHEMICAL REACTIONS</text>
</g>
<!-- subtopic_1_point_0 -->
<g id="node8" class="node">
<title>subtopic_1_point_0</title>
<polygon fill="white" stroke="white" stroke-width="0" points="1956.35,-1407.49 1607,-1407.49 1607,-1375.39 1956.35,-1375.39 1956.35,-1407.49"/>
<text text-anchor="middle" x="1781.67" y="-1388.14" font-family="Arial" font-size="9.00">Synthesis reactions: Combining simpler substances to form a more complex one.</text>
</g>
<!-- subtopic_1_point_1 -->
<g id="node9" class="node">
<title>subtopic_1_point_1</title>
<polygon fill="white" stroke="white" stroke-width="0" points="2124.01,-1602.86 1772.41,-1602.86 1772.41,-1570.76 2124.01,-1570.76 2124.01,-1602.86"/>
<text text-anchor="middle" x="1948.21" y="-1583.51" font-family="Arial" font-size="9.00">Decomposition reactions: Breaking down a complex substance into simpler ones.</text>
</g>
<!-- subtopic_1_point_2 -->
<g id="node10" class="node">
<title>subtopic_1_point_2</title>
<polygon fill="white" stroke="white" stroke-width="0" points="2190.54,-1796.8 1849.44,-1796.8 1849.44,-1764.7 2190.54,-1764.7 2190.54,-1796.8"/>
<text text-anchor="middle" x="2019.99" y="-1777.45" font-family="Arial" font-size="9.00">Single displacement reactions: One element replacing another in a compound.</text>
</g>
<!-- subtopic_1_point_3 -->
<g id="node11" class="node">
<title>subtopic_1_point_3</title>
<polygon fill="white" stroke="white" stroke-width="0" points="2144.27,-2018.18 1777.67,-2018.18 1777.67,-1986.08 2144.27,-1986.08 2144.27,-2018.18"/>
<text text-anchor="middle" x="1960.97" y="-1998.83" font-family="Arial" font-size="9.00">Double displacement reactions: Anions and cations of two compounds switch places.</text>
</g>
<!-- subtopic_1_point_4 -->
<g id="node12" class="node">
<title>subtopic_1_point_4</title>
<polygon fill="white" stroke="white" stroke-width="0" points="2145.66,-2227.58 1773.06,-2227.58 1773.06,-2195.48 2145.66,-2195.48 2145.66,-2227.58"/>
<text text-anchor="middle" x="1959.36" y="-2208.23" font-family="Arial" font-size="9.00">Redox reactions: Involve oxidation (loss of electrons) and reduction (gain of electrons).</text>
</g>
<!-- subtopic_1_point_5 -->
<g id="node13" class="node">
<title>subtopic_1_point_5</title>
<polygon fill="white" stroke="white" stroke-width="0" points="2138.81,-2434.78 1779.71,-2434.78 1779.71,-2402.68 2138.81,-2402.68 2138.81,-2434.78"/>
<text text-anchor="middle" x="1959.26" y="-2415.43" font-family="Arial" font-size="9.00">Combustion reactions: Rapid reactions with oxygen, often producing heat and light.</text>
</g>
<!-- subtopic_1_point_6 -->
<g id="node14" class="node">
<title>subtopic_1_point_6</title>
<polygon fill="white" stroke="white" stroke-width="0" points="2097.93,-2641.78 1820.58,-2641.78 1820.58,-2609.68 2097.93,-2609.68 2097.93,-2641.78"/>
<text text-anchor="middle" x="1959.25" y="-2622.43" font-family="Arial" font-size="9.00">Acid&#45;base reactions: Transfer of protons (H+) between species.</text>
</g>
<!-- subtopic_1_point_7 -->
<g id="node15" class="node">
<title>subtopic_1_point_7</title>
<polygon fill="white" stroke="white" stroke-width="0" points="2090.05,-2849.29 1828.45,-2849.29 1828.45,-2817.19 2090.05,-2817.19 2090.05,-2849.29"/>
<text text-anchor="middle" x="1959.25" y="-2829.94" font-family="Arial" font-size="9.00">Precipitation reactions: Formation of a solid from a solution.</text>
</g>
<!-- subtopic_1_point_8 -->
<g id="node16" class="node">
<title>subtopic_1_point_8</title>
<polygon fill="white" stroke="white" stroke-width="0" points="2166.93,-3056.78 1751.58,-3056.78 1751.58,-3024.68 2166.93,-3024.68 2166.93,-3056.78"/>
<text text-anchor="middle" x="1959.25" y="-3037.43" font-family="Arial" font-size="9.00">Complexation reactions: Formation of coordination complexes between ligands and metal atoms.</text>
</g>
<!-- subtopic_2 -->
<g id="node17" class="node">
<title>subtopic_2</title>
<polygon fill="white" stroke="white" stroke-width="0" points="1251.05,-2018.71 1034.45,-2018.71 1034.45,-1985.86 1251.05,-1985.86 1251.05,-2018.71"/>
<text text-anchor="middle" x="1142.75" y="-1998.41" font-family="Arial-Bold" font-size="10.00">CHEMICAL KINETICS AND EQUILIBRIUM</text>
</g>
<!-- subtopic_2_point_0 -->
<g id="node18" class="node">
<title>subtopic_2_point_0</title>
<polygon fill="white" stroke="white" stroke-width="0" points="1530.66,-2004.6 1301.31,-2004.6 1301.31,-1972.5 1530.66,-1972.5 1530.66,-2004.6"/>
<text text-anchor="middle" x="1415.98" y="-1985.25" font-family="Arial" font-size="9.00">Reaction rate: Speed at which a reaction proceeds.</text>
</g>
<!-- subtopic_2_point_1 -->
<g id="node19" class="node">
<title>subtopic_2_point_1</title>
<polygon fill="white" stroke="white" stroke-width="0" points="1515.45,-2218.4 1086.6,-2218.4 1086.6,-2186.3 1515.45,-2186.3 1515.45,-2218.4"/>
<text text-anchor="middle" x="1301.03" y="-2199.05" font-family="Arial" font-size="9.00">Factors affecting reaction rate: Concentration, temperature, surface area, catalysts, activation energy.</text>
</g>
<!-- subtopic_2_point_2 -->
<g id="node20" class="node">
<title>subtopic_2_point_2</title>
<polygon fill="white" stroke="white" stroke-width="0" points="1473.7,-2425.65 1126.6,-2425.65 1126.6,-2393.55 1473.7,-2393.55 1473.7,-2425.65"/>
<text text-anchor="middle" x="1300.15" y="-2406.3" font-family="Arial" font-size="9.00">Chemical equilibrium: State where forward and reverse reaction rates are equal.</text>
</g>
<!-- subtopic_2_point_3 -->
<g id="node21" class="node">
<title>subtopic_2_point_3</title>
<polygon fill="white" stroke="white" stroke-width="0" points="1455.36,-2632.92 1145.01,-2632.92 1145.01,-2600.82 1455.36,-2600.82 1455.36,-2632.92"/>
<text text-anchor="middle" x="1300.18" y="-2613.57" font-family="Arial" font-size="9.00">Le Chatelier&#39;s principle: Predicting the effect of changes on equilibrium.</text>
</g>
<!-- subtopic_2_point_4 -->
<g id="node22" class="node">
<title>subtopic_2_point_4</title>
<polygon fill="white" stroke="white" stroke-width="0" points="1500.37,-2840.41 1100.02,-2840.41 1100.02,-2808.31 1500.37,-2808.31 1500.37,-2840.41"/>
<text text-anchor="middle" x="1300.19" y="-2821.06" font-family="Arial" font-size="9.00">Equilibrium constant: Quantifies the relative amounts of reactants and products at equilibrium.</text>
</g>
<!-- subtopic_3 -->
<g id="node23" class="node">
<title>subtopic_3</title>
<polygon fill="white" stroke="white" stroke-width="0" points="888.2,-1764.72 714.35,-1764.72 714.35,-1731.87 888.2,-1731.87 888.2,-1764.72"/>
<text text-anchor="middle" x="801.27" y="-1744.42" font-family="Arial-Bold" font-size="10.00">CHEMICAL THERMODYNAMICS</text>
</g>
<!-- subtopic_3_point_0 -->
<g id="node24" class="node">
<title>subtopic_3_point_0</title>
<polygon fill="white" stroke="white" stroke-width="0" points="633.14,-1565.79 424.04,-1565.79 424.04,-1533.69 633.14,-1533.69 633.14,-1565.79"/>
<text text-anchor="middle" x="528.59" y="-1546.44" font-family="Arial" font-size="9.00">Enthalpy (ΔH): Heat change during a reaction.</text>
</g>
<!-- subtopic_3_point_1 -->
<g id="node25" class="node">
<title>subtopic_3_point_1</title>
<polygon fill="white" stroke="white" stroke-width="0" points="664.25,-1777.79 434.15,-1777.79 434.15,-1745.69 664.25,-1745.69 664.25,-1777.79"/>
<text text-anchor="middle" x="549.2" y="-1758.44" font-family="Arial" font-size="9.00">Entropy (ΔS): Change in disorder during a reaction.</text>
</g>
<!-- subtopic_3_point_2 -->
<g id="node26" class="node">
<title>subtopic_3_point_2</title>
<polygon fill="white" stroke="white" stroke-width="0" points="671.63,-1981.46 385.28,-1981.46 385.28,-1949.36 671.63,-1949.36 671.63,-1981.46"/>
<text text-anchor="middle" x="528.46" y="-1962.11" font-family="Arial" font-size="9.00">Gibbs free energy (ΔG): Determines the spontaneity of a reaction.</text>
</g>
<!-- subtopic_3_point_3 -->
<g id="node27" class="node">
<title>subtopic_3_point_3</title>
<polygon fill="white" stroke="white" stroke-width="0" points="649.09,-2187.55 404.74,-2187.55 404.74,-2155.45 649.09,-2155.45 649.09,-2187.55"/>
<text text-anchor="middle" x="526.92" y="-2168.2" font-family="Arial" font-size="9.00">Relationship between ΔG, ΔH, and ΔS: ΔG = ΔH &#45; TΔS.</text>
</g>
<!-- subtopic_3_point_4 -->
<g id="node28" class="node">
<title>subtopic_3_point_4</title>
<polygon fill="white" stroke="white" stroke-width="0" points="630.7,-2394.24 426.1,-2394.24 426.1,-2362.14 630.7,-2362.14 630.7,-2394.24"/>
<text text-anchor="middle" x="528.4" y="-2374.89" font-family="Arial" font-size="9.00">Exothermic reactions (ΔH &lt; 0): Release heat.</text>
</g>
<!-- subtopic_3_point_5 -->
<g id="node29" class="node">
<title>subtopic_3_point_5</title>
<polygon fill="white" stroke="white" stroke-width="0" points="632.17,-2601.72 426.82,-2601.72 426.82,-2569.62 632.17,-2569.62 632.17,-2601.72"/>
<text text-anchor="middle" x="529.5" y="-2582.37" font-family="Arial" font-size="9.00">Endothermic reactions (ΔH &gt; 0): Absorb heat.</text>
</g>
<!-- subtopic_4 -->
<g id="node30" class="node">
<title>subtopic_4</title>
<polygon fill="white" stroke="white" stroke-width="0" points="791.87,-1256.08 489.02,-1256.08 489.02,-1223.23 791.87,-1223.23 791.87,-1256.08"/>
<text text-anchor="middle" x="640.44" y="-1235.78" font-family="Arial-Bold" font-size="10.00">REACTION MECHANISMS AND ELEMENTARY REACTIONS</text>
</g>
<!-- subtopic_4_point_0 -->
<g id="node31" class="node">
<title>subtopic_4_point_0</title>
<polygon fill="white" stroke="white" stroke-width="0" points="326.97,-881.64 126.12,-881.64 126.12,-849.54 326.97,-849.54 326.97,-881.64"/>
<text text-anchor="middle" x="226.55" y="-862.29" font-family="Arial" font-size="9.00">Elementary reactions: Single&#45;step reactions.</text>
</g>
<!-- subtopic_4_point_1 -->
<g id="node32" class="node">
<title>subtopic_4_point_1</title>
<polygon fill="white" stroke="white" stroke-width="0" points="355.78,-1089.13 97.18,-1089.13 97.18,-1057.03 355.78,-1057.03 355.78,-1089.13"/>
<text text-anchor="middle" x="226.48" y="-1069.78" font-family="Arial" font-size="9.00">Reaction mechanisms: Sequence of elementary reactions.</text>
</g>
<!-- subtopic_4_point_2 -->
<g id="node33" class="node">
<title>subtopic_4_point_2</title>
<polygon fill="white" stroke="white" stroke-width="0" points="339.36,-1295.85 113.01,-1295.85 113.01,-1263.75 339.36,-1263.75 339.36,-1295.85"/>
<text text-anchor="middle" x="226.18" y="-1276.5" font-family="Arial" font-size="9.00">Unimolecular reactions: Involve a single molecule.</text>
</g>
<!-- subtopic_4_point_3 -->
<g id="node34" class="node">
<title>subtopic_4_point_3</title>
<polygon fill="white" stroke="white" stroke-width="0" points="328.69,-1501.64 121.84,-1501.64 121.84,-1469.54 328.69,-1469.54 328.69,-1501.64"/>
<text text-anchor="middle" x="225.26" y="-1482.29" font-family="Arial" font-size="9.00">Bimolecular reactions: Involve two molecules.</text>
</g>
<!-- subtopic_4_point_4 -->
<g id="node35" class="node">
<title>subtopic_4_point_4</title>
<polygon fill="white" stroke="white" stroke-width="0" points="383.85,-1705.69 0,-1705.69 0,-1673.59 383.85,-1673.59 383.85,-1705.69"/>
<text text-anchor="middle" x="191.93" y="-1686.34" font-family="Arial" font-size="9.00">Transition state theory: Explains reaction rates based on the energy of the transition state.</text>
</g>
<!-- subtopic_5 -->
<g id="node36" class="node">
<title>subtopic_5</title>
<polygon fill="white" stroke="white" stroke-width="0" points="988.17,-789.26 791.82,-789.26 791.82,-756.41 988.17,-756.41 988.17,-789.26"/>
<text text-anchor="middle" x="890" y="-768.96" font-family="Arial-Bold" font-size="10.00">ORGANIC REACTION MECHANISMS</text>
</g>
<!-- subtopic_5_point_0 -->
<g id="node37" class="node">
<title>subtopic_5_point_0</title>
<polygon fill="white" stroke="white" stroke-width="0" points="696.89,-111.12 440.54,-111.12 440.54,-79.02 696.89,-79.02 696.89,-111.12"/>
<text text-anchor="middle" x="568.72" y="-91.77" font-family="Arial" font-size="9.00">Substitution reactions: Replacement of a functional group.</text>
</g>
<!-- subtopic_5_point_1 -->
<g id="node38" class="node">
<title>subtopic_5_point_1</title>
<polygon fill="white" stroke="white" stroke-width="0" points="705.89,-318.62 431.54,-318.62 431.54,-286.52 705.89,-286.52 705.89,-318.62"/>
<text text-anchor="middle" x="568.72" y="-299.27" font-family="Arial" font-size="9.00">Addition reactions: Adding atoms or groups to a multiple bond.</text>
</g>
<!-- subtopic_5_point_2 -->
<g id="node39" class="node">
<title>subtopic_5_point_2</title>
<polygon fill="white" stroke="white" stroke-width="0" points="728.39,-526.12 409.04,-526.12 409.04,-494.02 728.39,-494.02 728.39,-526.12"/>
<text text-anchor="middle" x="568.72" y="-506.77" font-family="Arial" font-size="9.00">Elimination reactions: Removing atoms or groups to form a multiple bond.</text>
</g>
<!-- subtopic_5_point_3 -->
<g id="node40" class="node">
<title>subtopic_5_point_3</title>
<polygon fill="white" stroke="white" stroke-width="0" points="660.89,-733.62 476.54,-733.62 476.54,-701.52 660.89,-701.52 660.89,-733.62"/>
<text text-anchor="middle" x="568.72" y="-714.27" font-family="Arial" font-size="9.00">Nucleophilic and electrophilic reactions.</text>
</g>
<!-- subtopic_5_point_4 -->
<g id="node41" class="node">
<title>subtopic_5_point_4</title>
<polygon fill="white" stroke="white" stroke-width="0" points="659.39,-941.12 478.04,-941.12 478.04,-909.02 659.39,-909.02 659.39,-941.12"/>
<text text-anchor="middle" x="568.71" y="-921.77" font-family="Arial" font-size="9.00">Radical reactions: Involve free radicals.</text>
</g>
<!-- subtopic_6 -->
<g id="node42" class="node">
<title>subtopic_6</title>
<polygon fill="white" stroke="white" stroke-width="0" points="1433.91,-636.52 1359.81,-636.52 1359.81,-603.67 1433.91,-603.67 1433.91,-636.52"/>
<text text-anchor="middle" x="1396.86" y="-616.22" font-family="Arial-Bold" font-size="10.00">CATALYSIS</text>
</g>
<!-- subtopic_6_point_0 -->
<g id="node43" class="node">
<title>subtopic_6_point_0</title>
<polygon fill="white" stroke="white" stroke-width="0" points="1683.68,-32.1 1355.33,-32.1 1355.33,0 1683.68,0 1683.68,-32.1"/>
<text text-anchor="middle" x="1519.51" y="-12.75" font-family="Arial" font-size="9.00">Catalysts: Substances that increase reaction rates without being consumed.</text>
</g>
<!-- subtopic_6_point_1 -->
<g id="node44" class="node">
<title>subtopic_6_point_1</title>
<polygon fill="white" stroke="white" stroke-width="0" points="1621.81,-239.6 1417.21,-239.6 1417.21,-207.5 1621.81,-207.5 1621.81,-239.6"/>
<text text-anchor="middle" x="1519.51" y="-220.25" font-family="Arial" font-size="9.00">Homogeneous and heterogeneous catalysis.</text>
</g>
<!-- subtopic_6_point_2 -->
<g id="node45" class="node">
<title>subtopic_6_point_2</title>
<polygon fill="white" stroke="white" stroke-width="0" points="1607.93,-447.1 1431.08,-447.1 1431.08,-415 1607.93,-415 1607.93,-447.1"/>
<text text-anchor="middle" x="1519.5" y="-427.75" font-family="Arial" font-size="9.00">Enzyme catalysis: Biological catalysts.</text>
</g>
<!-- subtopic_7 -->
<g id="node46" class="node">
<title>subtopic_7</title>
<polygon fill="white" stroke="white" stroke-width="0" points="1972.3,-887.18 1744.45,-887.18 1744.45,-854.33 1972.3,-854.33 1972.3,-887.18"/>
<text text-anchor="middle" x="1858.37" y="-866.88" font-family="Arial-Bold" font-size="10.00">APPLICATIONS OF CHEMICAL REACTIONS</text>
</g>
<!-- subtopic_7_point_0 -->
<g id="node47" class="node">
<title>subtopic_7_point_0</title>
<polygon fill="white" stroke="white" stroke-width="0" points="2346.15,-485.34 2114.55,-485.34 2114.55,-453.24 2346.15,-453.24 2346.15,-485.34"/>
<text text-anchor="middle" x="2230.35" y="-465.99" font-family="Arial" font-size="9.00">Chemical synthesis: Production of new compounds.</text>
</g>
<!-- subtopic_7_point_1 -->
<g id="node48" class="node">
<title>subtopic_7_point_1</title>
<polygon fill="white" stroke="white" stroke-width="0" points="2355.53,-692.81 2105.18,-692.81 2105.18,-660.71 2355.53,-660.71 2355.53,-692.81"/>
<text text-anchor="middle" x="2230.35" y="-673.46" font-family="Arial" font-size="9.00">Industrial processes: Manufacturing of various materials.</text>
</g>
<!-- subtopic_7_point_2 -->
<g id="node49" class="node">
<title>subtopic_7_point_2</title>
<polygon fill="white" stroke="white" stroke-width="0" points="2376.44,-899.99 2095.34,-899.99 2095.34,-867.89 2376.44,-867.89 2376.44,-899.99"/>
<text text-anchor="middle" x="2235.89" y="-880.64" font-family="Arial" font-size="9.00">Biochemical reactions: Metabolic processes in living organisms.</text>
</g>
</g>
</svg>
